<svg width="123" height="137" viewBox="0 0 123 137" fill="none" xmlns="http://www.w3.org/2000/svg">
<circle cx="55.5618" cy="68.1786" r="47.7273" transform="rotate(-20 55.5618 68.1786)" fill="black"/>
<path d="M103.401 50.7666C113.221 77.7472 99.5247 107.482 72.8383 117.195C46.1518 126.909 16.5465 112.934 6.72636 85.9533C-3.09377 58.9727 10.6024 29.2375 37.2889 19.5244C63.9754 9.81133 93.5807 23.7861 103.401 50.7666Z" stroke="black" stroke-width="2.12121"/>
<path d="M39.7666 98.4387L47.1452 89.6452L46.768 89.3287L44.253 90.7939L29.8251 78.6874L28.0447 80.8091L26.5366 89.7881L27.5739 90.6585L29.1595 85.5611L40.5934 95.1553L39.3894 98.1222L39.7666 98.4387ZM51.1714 85.3258C55.7285 77.7403 55.6343 70.671 50.3535 66.2398C46.4872 62.9956 42.0837 63.5993 38.8988 67.3949C35.437 71.5205 35.9944 75.6441 38.847 78.0377C41.2988 80.095 44.5413 80.2045 46.8162 77.4934C48.1021 75.961 48.6356 74.3196 48.3614 72.6835C51.2777 76.0545 52.1545 80.0845 50.2519 84.5543L51.1714 85.3258ZM41.9143 72.898C40.594 71.7902 38.8907 69.7985 39.9589 68.5254C41.126 67.1345 43.5491 68.3642 46.3074 70.6787C46.5903 70.9161 46.8732 71.1535 47.1128 71.3947C47.3894 72.3098 47.2683 73.1723 46.6946 73.856C45.6066 75.1526 43.6352 74.3421 41.9143 72.898ZM66.6528 66.8757C69.9762 62.9151 69.7147 58.6783 67.1922 56.5617C65.4241 55.078 63.3362 54.933 59.6627 56.3903C60.2695 54.0873 60.2608 51.9909 58.9642 50.9029C56.8424 49.1226 53.3714 50.1471 51.0372 52.929C48.3271 56.1588 48.1116 60.4373 50.5634 62.4946C52.2608 63.9189 53.9219 64.4289 56.6946 63.6621C55.7773 66.9097 56.717 68.6625 57.8958 69.6516C60.2062 71.5902 63.8043 70.2705 66.6528 66.8757ZM52.346 57.4018C51.1908 56.4325 51.093 55.0649 52.1019 53.8625C53.0514 52.7309 54.6009 52.4643 56.2983 53.8886C57.3827 54.7985 57.9696 56.0142 58.0409 57.0783C54.3789 58.6657 53.3597 58.2524 52.346 57.4018ZM60.3937 66.2437C59.0499 65.1162 58.317 63.9788 58.3872 63.0334C58.4739 63.0258 58.5568 62.9749 58.6199 62.9475C63.1895 60.9968 63.9897 60.9049 65.3335 62.0325C66.5122 63.0216 66.7157 64.5984 65.4497 66.1072C64.243 67.5453 62.1147 67.6878 60.3937 66.2437ZM74.9947 56.4555L78.14 52.7071C74.1813 47.6578 71.0757 40.8738 68.6057 34.8642L67.427 33.8751L58.1295 44.9554L61.9015 48.1205L68.8252 39.8693C70.7071 46.1487 72.8849 52.3149 74.9947 56.4555Z" fill="white"/>
</svg>
