<svg width="1280" height="1425" viewBox="0 0 1280 1425" fill="none" xmlns="http://www.w3.org/2000/svg">
<g filter="url(#filter0_d_105_426)">
<path d="M104.97 14.8681L1228.85 15.1526L1228.24 1034.26L115.642 1033.98C91.6487 1033.97 72.2103 1014.51 72.2247 990.521L72.7919 47.0191C72.8025 29.2581 87.2093 14.8636 104.97 14.8681Z" fill="url(#paint0_linear_105_426)" stroke="black" stroke-width="3.38517"/>
<path d="M86.9171 27.2749L1210.8 27.5593L1210.2 1030.51L97.5981 1030.23C73.6052 1030.23 54.1668 1010.77 54.1812 986.779L54.7386 59.4259C54.7493 41.6649 69.1561 27.2704 86.9171 27.2749Z" fill="url(#paint1_linear_105_426)" stroke="black" stroke-width="3.38517"/>
<path d="M65.235 15.4044L1188.81 15.4045L1188.81 1038.22L76.5189 1038.22C52.6958 1038.22 33.3833 1018.91 33.3833 995.082L33.3833 47.2561C33.3833 29.6649 47.6438 15.4044 65.235 15.4044Z" fill="url(#paint2_linear_105_426)" stroke="black" stroke-width="4"/>
<path d="M62.0951 15.0919L1189.37 14.8956L1189.36 72.4396L62.0851 72.6359C46.1948 72.6387 33.3154 59.7593 33.3181 43.8689C33.3209 27.9786 46.2048 15.0947 62.0951 15.0919Z" fill="#C0C0C0" stroke="black" stroke-width="3.38517"/>
<line y1="-1.69258" x2="1132.36" y2="-1.69258" transform="matrix(1 -0.00017421 -0.000174149 1 58.3184 34.9287)" stroke="black" stroke-width="3.38517"/>
<line y1="-1.69258" x2="1132.36" y2="-1.69258" transform="matrix(1 -0.00017421 -0.000174149 1 58.6899 51.7683)" stroke="black" stroke-width="3.38517"/>
<line x1="1.5" y1="-1.5" x2="453.686" y2="-1.5" transform="matrix(-0.000174141 1 -1 0.000174218 404.679 462.81)" stroke="black" stroke-width="3" stroke-linecap="round"/>
<line x1="1.5" y1="-1.5" x2="453.681" y2="-1.5" transform="matrix(-0.000174197 1 -1 0.000174162 784.29 459.333)" stroke="black" stroke-width="3" stroke-linecap="round"/>
<line x1="2.5" y1="-2.5" x2="1085.66" y2="-2.5" transform="matrix(1 -0.000174218 -0.000174141 1 74.6206 979.464)" stroke="black" stroke-width="5" stroke-linecap="round"/>
<line x1="5" y1="-5" x2="1074.48" y2="-5" transform="matrix(1 -0.00017419 -0.000174169 1 69.0112 347.309)" stroke="black" stroke-width="10" stroke-linecap="round"/>
<line x1="2.5" y1="-2.5" x2="1076.98" y2="-2.5" transform="matrix(1 -0.00017419 -0.000174169 1 69.0098 357.308)" stroke="black" stroke-width="5" stroke-linecap="round"/>
</g>
<defs>
<filter id="filter0_d_105_426" x="28.3833" y="-1.82446" width="1237.17" height="1065.04" filterUnits="userSpaceOnUse" color-interpolation-filters="sRGB">
<feFlood flood-opacity="0" result="BackgroundImageFix"/>
<feColorMatrix in="SourceAlpha" type="matrix" values="0 0 0 0 0 0 0 0 0 0 0 0 0 0 0 0 0 0 127 0" result="hardAlpha"/>
<feOffset dx="16" dy="4"/>
<feGaussianBlur stdDeviation="9.5"/>
<feComposite in2="hardAlpha" operator="out"/>
<feColorMatrix type="matrix" values="0 0 0 0 0 0 0 0 0 0 0 0 0 0 0 0 0 0 0.25 0"/>
<feBlend mode="normal" in2="BackgroundImageFix" result="effect1_dropShadow_105_426"/>
<feBlend mode="normal" in="SourceGraphic" in2="effect1_dropShadow_105_426" result="shape"/>
</filter>
<linearGradient id="paint0_linear_105_426" x1="56.2087" y1="427.163" x2="691.188" y2="427.545" gradientUnits="userSpaceOnUse">
<stop stop-opacity="0.1"/>
<stop offset="0.0001" stop-color="#EEEEEE"/>
<stop offset="1" stop-color="white"/>
</linearGradient>
<linearGradient id="paint1_linear_105_426" x1="38.1595" y1="433.031" x2="673.138" y2="433.413" gradientUnits="userSpaceOnUse">
<stop stop-opacity="0.1"/>
<stop offset="0.0001" stop-color="#EEEEEE"/>
<stop offset="1" stop-color="white"/>
</linearGradient>
<linearGradient id="paint2_linear_105_426" x1="16.7212" y1="429.155" x2="651.7" y2="429.155" gradientUnits="userSpaceOnUse">
<stop stop-color="white"/>
<stop offset="0.0001" stop-color="#EEEEEE"/>
<stop offset="1" stop-color="white"/>
</linearGradient>
</defs>
</svg>
