<svg width="971" height="305" viewBox="0 0 971 305" fill="none" xmlns="http://www.w3.org/2000/svg">
<g filter="url(#filter0_d_119_102)">
<path d="M210.735 122.94C200.348 124.689 189.751 122.563 179.468 122.49C166.113 122.396 153.211 123.512 140.234 127.068C132.414 129.212 124.27 129.863 116.323 131.441C101.504 134.385 87.0154 139.249 73.0906 145.022C49.9501 154.617 25.9951 164.536 4 176.554" stroke="black" stroke-width="3" stroke-linecap="round"/>
<mask id="path-2-inside-1_119_102" fill="white">
<path fill-rule="evenodd" clip-rule="evenodd" d="M199.75 84.2377C194.637 87.3556 191.517 92.9117 191.517 98.9003L191.517 190.607C191.517 196.509 194.548 201.997 199.543 205.141L323.855 283.385C326.595 285.109 329.766 286.024 333.004 286.024L930.849 286.024C940.334 286.024 948.023 278.335 948.023 268.851L948.023 23.1741C948.023 13.6892 940.334 6.00025 930.849 6.00025L332.872 6.00027C329.718 6.00027 326.624 6.86911 323.931 8.51147L199.75 84.2377ZM341.406 145.373C341.406 120.712 321.415 100.721 296.754 100.721C272.094 100.721 252.102 120.712 252.102 145.373C252.102 170.033 272.094 190.024 296.754 190.024C321.415 190.024 341.406 170.033 341.406 145.373Z"/>
</mask>
<path fill-rule="evenodd" clip-rule="evenodd" d="M199.75 84.2377C194.637 87.3556 191.517 92.9117 191.517 98.9003L191.517 190.607C191.517 196.509 194.548 201.997 199.543 205.141L323.855 283.385C326.595 285.109 329.766 286.024 333.004 286.024L930.849 286.024C940.334 286.024 948.023 278.335 948.023 268.851L948.023 23.1741C948.023 13.6892 940.334 6.00025 930.849 6.00025L332.872 6.00027C329.718 6.00027 326.624 6.86911 323.931 8.51147L199.75 84.2377ZM341.406 145.373C341.406 120.712 321.415 100.721 296.754 100.721C272.094 100.721 252.102 120.712 252.102 145.373C252.102 170.033 272.094 190.024 296.754 190.024C321.415 190.024 341.406 170.033 341.406 145.373Z" fill="url(#paint0_linear_119_102)"/>
<path d="M332.872 6.00027L332.872 9.00027L332.872 6.00027ZM323.931 8.51147L322.369 5.95013L323.931 8.51147ZM930.849 6.00025L930.849 3.00025L930.849 6.00025ZM199.75 84.2377L201.311 86.7991L199.75 84.2377ZM194.517 190.607L194.517 98.9003L188.517 98.9003L188.517 190.607L194.517 190.607ZM325.453 280.846L201.141 202.602L197.945 207.68L322.257 285.924L325.453 280.846ZM930.849 283.024L333.004 283.024L333.004 289.024L930.849 289.024L930.849 283.024ZM945.023 23.1741L945.023 268.851L951.023 268.851L951.023 23.1741L945.023 23.1741ZM332.872 9.00027L930.849 9.00025L930.849 3.00025L332.872 3.00027L332.872 9.00027ZM201.311 86.7991L325.493 11.0728L322.369 5.95013L198.188 81.6764L201.311 86.7991ZM296.754 103.721C319.758 103.721 338.406 122.369 338.406 145.373L344.406 145.373C344.406 119.055 323.071 97.7207 296.754 97.7207L296.754 103.721ZM255.102 145.373C255.102 122.369 273.75 103.721 296.754 103.721L296.754 97.7207C270.437 97.7207 249.102 119.055 249.102 145.373L255.102 145.373ZM296.754 187.024C273.75 187.024 255.102 168.376 255.102 145.373L249.102 145.373C249.102 171.69 270.437 193.024 296.754 193.024L296.754 187.024ZM338.406 145.373C338.406 168.376 319.758 187.024 296.754 187.024L296.754 193.024C323.071 193.024 344.406 171.69 344.406 145.373L338.406 145.373ZM332.872 3.00027C329.166 3.00027 325.532 4.02087 322.369 5.95013L325.493 11.0728C327.715 9.71734 330.269 9.00027 332.872 9.00027L332.872 3.00027ZM951.023 23.1741C951.023 12.0324 941.991 3.00025 930.849 3.00025L930.849 9.00025C938.677 9.00025 945.023 15.3461 945.023 23.1741L951.023 23.1741ZM930.849 289.024C941.991 289.024 951.023 279.992 951.023 268.851L945.023 268.851C945.023 276.679 938.677 283.024 930.849 283.024L930.849 289.024ZM322.257 285.924C325.476 287.95 329.201 289.024 333.004 289.024L333.004 283.024C330.332 283.024 327.715 282.269 325.453 280.846L322.257 285.924ZM194.517 98.9003C194.517 93.9579 197.092 89.3723 201.311 86.7991L198.188 81.6764C192.182 85.3389 188.517 91.8656 188.517 98.9003L194.517 98.9003ZM188.517 190.607C188.517 197.54 192.077 203.987 197.945 207.68L201.141 202.602C197.018 200.007 194.517 195.478 194.517 190.607L188.517 190.607Z" fill="black" mask="url(#path-2-inside-1_119_102)"/>
<path d="M50.251 182.85C67.8492 173.234 85.1133 165.766 104.908 163.026C120.504 160.868 136.032 159.481 151.678 157.702C171.952 155.398 192.135 158.971 212.264 158.467C220.828 158.252 227.46 159.21 236.368 159.384C258.472 161.346 283.251 157.175 288.859 156.029C313.667 152.226 308.553 135.703 306.388 131.741C299.113 116.635 282.431 124.279 269.204 123.681C262.365 123.371 259.226 123.852 256.149 123.964" stroke="black" stroke-width="3" stroke-linecap="round"/>
</g>
<defs>
<filter id="filter0_d_119_102" x="0.547243" y="0.143682" width="970.252" height="304.753" filterUnits="userSpaceOnUse" color-interpolation-filters="sRGB">
<feFlood flood-opacity="0" result="BackgroundImageFix"/>
<feColorMatrix in="SourceAlpha" type="matrix" values="0 0 0 0 0 0 0 0 0 0 0 0 0 0 0 0 0 0 127 0" result="hardAlpha"/>
<feOffset dx="10.4121" dy="6.50756"/>
<feGaussianBlur stdDeviation="6.18218"/>
<feComposite in2="hardAlpha" operator="out"/>
<feColorMatrix type="matrix" values="0 0 0 0 0 0 0 0 0 0 0 0 0 0 0 0 0 0 0.25 0"/>
<feBlend mode="normal" in2="BackgroundImageFix" result="effect1_dropShadow_119_102"/>
<feBlend mode="normal" in="SourceGraphic" in2="effect1_dropShadow_119_102" result="shape"/>
</filter>
<linearGradient id="paint0_linear_119_102" x1="207.449" y1="97.9765" x2="963.954" y2="97.9765" gradientUnits="userSpaceOnUse">
<stop stop-color="#F8BBEB"/>
<stop offset="1" stop-color="#F7BBBB"/>
</linearGradient>
</defs>
</svg>
