<svg width="681" height="679" viewBox="0 0 681 679" fill="none" xmlns="http://www.w3.org/2000/svg">
<g filter="url(#filter0_d_116_975)">
<rect x="6.11279" y="6.24463" width="656" height="654" rx="10" fill="white"/>
<rect x="8.11279" y="8.24463" width="652" height="650" rx="8" stroke="black" stroke-width="4"/>
</g>
<path d="M143.844 412.563C143.844 414.947 141.911 416.881 139.526 416.881C137.141 416.881 135.208 414.947 135.208 412.563L143.844 412.563ZM135.208 83.5246L135.208 79.2065L143.844 79.2065L143.844 83.5246L135.208 83.5246ZM135.208 412.563L135.208 83.5246L143.844 83.5246L143.844 412.563L135.208 412.563Z" fill="black"/>
<path d="M513.472 70.5703C515.857 70.5703 517.79 72.5036 517.79 74.8884C517.79 77.2732 515.857 79.2065 513.472 79.2065L513.472 70.5703ZM139.526 79.2065L135.208 79.2065L135.208 70.5704L139.526 70.5704L139.526 79.2065ZM513.472 79.2065L139.526 79.2065L139.526 70.5704L513.472 70.5703L513.472 79.2065Z" fill="black"/>
<rect x="0.431808" y="-0.431808" width="36.2719" height="66.4985" transform="matrix(1 0 0 -1 198.252 144.841)" fill="#FF9494" stroke="black" stroke-width="0.863617"/>
<rect x="0.431808" y="-0.431808" width="36.2719" height="132.133" transform="matrix(1 0 0 -1 279.432 210.476)" fill="#BDFF94" stroke="black" stroke-width="0.863617"/>
<rect x="0.431808" y="-0.431808" width="36.2719" height="195.177" transform="matrix(1 0 0 -1 360.612 273.52)" fill="#9498FF" stroke="black" stroke-width="0.863617"/>
<rect x="0.431808" y="-0.431808" width="36.2719" height="253.04" transform="matrix(1 0 0 -1 441.792 331.383)" fill="#FFE794" stroke="black" stroke-width="0.863617"/>
<path d="M98.089 138.977H104.106V139.355L102.218 140.299V154.551H101.746L96.0833 151.011V150.186L100.213 152.262V140.299L98.089 139.355V138.977ZM112.176 138.741C115.173 138.741 117.296 142.163 117.296 146.764C117.296 151.719 115.432 154.787 112.176 154.787C109.156 154.787 107.056 151.365 107.056 146.764C107.056 141.809 108.92 138.741 112.176 138.741ZM112.671 139.85C110.383 139.85 109.226 142.776 109.226 147.543C109.226 151.082 110.17 153.701 111.775 153.701C113.993 153.701 115.125 150.775 115.125 146.033C115.125 142.47 114.229 139.85 112.671 139.85Z" fill="black"/>
<path d="M626.883 30.4099H636.321L636.557 34.6336H636.18L635 32.3448H629.455C634.905 38.527 636.203 39.4473 636.203 42.0429C636.203 44.3317 634.433 46.2194 632.05 46.2194C630.21 46.2194 629.337 45.5823 628.11 44.7092C627.119 44.0014 626.623 43.1047 626.623 42.2788C626.623 41.4058 626.93 41.2878 627.567 41.2878H628.652L628.77 41.453V42.5148C628.77 44.2373 629.691 45.1104 631.319 45.1104C632.758 45.1104 633.914 43.9306 633.914 41.9957C633.914 39.6125 633.726 38.8574 626.883 30.9998V30.4099Z" fill="black"/>
<path d="M200.162 39.8973C201.106 39.8973 201.507 40.1333 202.876 41.6435C204.245 43.1536 204.74 46.1032 204.74 49.6426V58.2316L206.628 59.1755V59.553H200.729V59.1755L202.616 58.2316V45.1829C202.616 42.021 201.979 41.6199 200.965 41.6199C200.54 41.6199 200.304 41.6907 199.761 41.8322H199.62C199.384 40.6996 199.384 40.6288 199.384 40.558C199.384 40.0625 199.761 39.8973 200.162 39.8973ZM211.238 43.7435C212.559 43.7435 213.833 44.357 214.659 45.1593H214.801C215.06 44.3098 215.674 43.7435 216.641 43.7435C217.703 43.7435 218.458 44.357 218.836 45.0413V45.1121L218.765 45.1593H217.868C217.161 45.1593 216.759 45.3245 216.547 45.5604V52.2618C216.547 54.2439 214.824 54.8338 213.149 54.8338C212.064 54.8338 211.096 54.409 210.223 53.8427C209.374 53.3 208.973 52.5213 208.973 51.837C208.973 51.2707 209.114 51.1764 209.586 51.1764H210.813L210.931 51.2943V51.955C210.931 53.0405 211.332 53.7247 212.536 53.7247C213.621 53.7247 214.659 52.8517 214.659 51.7663V50.0437L212.418 49.5246C209.704 48.8875 208.666 47.7313 208.666 46.1975C208.666 44.6638 209.751 43.7435 211.238 43.7435ZM210.506 46.6695C210.506 47.7313 210.908 48.5336 214.659 49.2415V45.7492C213.715 45.3481 213.031 45.2065 212.276 45.2065C211.143 45.2065 210.506 45.702 210.506 46.6695ZM220.234 43.9795H225.284V44.357L223.608 45.1121V52.2618C224.222 52.8045 225.378 53.0876 226.228 53.0876C227.596 53.0876 228.564 52.3562 228.564 50.964V45.1121L226.888 44.357V43.9795H231.938V44.357L230.451 45.1121V52.073C230.451 53.8899 229.13 54.8338 227.289 54.8338C225.944 54.8338 224.906 54.2911 223.703 53.0876H223.585L223.372 54.8338H223.231L220.305 53.536V53.3708L221.721 52.1438V45.1121L220.234 44.357V43.9795Z" fill="black"/>
<path d="M278.072 43.9794H283.31V44.3569L281.399 45.2772L281.706 56.7449L287.251 43.8614H288.312L293.952 56.9101L294.188 45.2772L292.442 44.3569V43.9794H297.869V44.3569L296.217 45.3008L295.816 58.2315L297.798 59.1754V59.5529H293.645L288.218 46.9997L282.767 59.5529H278.402V59.1754L280.431 58.2079L279.936 45.3008L278.072 44.3569V43.9794ZM302.965 43.7434C304.287 43.7434 305.561 44.3569 306.387 45.1592H306.528C306.788 44.3097 307.401 43.7434 308.369 43.7434C309.431 43.7434 310.186 44.3569 310.563 45.0412V45.112L310.493 45.1592H309.596C308.888 45.1592 308.487 45.3244 308.275 45.5603V52.2617C308.275 54.2437 306.552 54.8337 304.877 54.8337C303.791 54.8337 302.824 54.4089 301.951 53.8426C301.101 53.2999 300.7 52.5212 300.7 51.8369C300.7 51.2706 300.842 51.1762 301.314 51.1762H302.541L302.659 51.2942V51.9549C302.659 53.0403 303.06 53.7246 304.263 53.7246C305.349 53.7246 306.387 52.8516 306.387 51.7661V50.0436L304.145 49.5245C301.432 48.8874 300.393 47.7312 300.393 46.1974C300.393 44.6637 301.479 43.7434 302.965 43.7434ZM302.234 46.6693C302.234 47.7312 302.635 48.5334 306.387 49.2413V45.7491C305.443 45.348 304.759 45.2064 304.004 45.2064C302.871 45.2064 302.234 45.7019 302.234 46.6693ZM312.056 43.9794H317.106V44.3569L315.43 45.112V51.8841C315.902 52.5684 316.445 52.8988 317.106 52.8988C317.412 52.8988 317.743 52.8752 318.097 52.7336L318.993 52.3796H319.158L319.63 53.5359C319.701 53.701 319.725 53.8426 319.725 53.9606C319.725 54.2437 319.371 54.4797 319.017 54.6213C318.805 54.7157 318.427 54.8337 318.167 54.8337C317.365 54.8337 316.586 54.5977 315.501 52.828H315.407L315.194 54.8337H315.053L312.127 53.5359V53.3707L313.543 52.1437V45.112L312.056 44.3569V43.9794Z" fill="black"/>
<path d="M362.735 39.8973C363.679 39.8973 364.08 40.1333 365.448 41.6435C366.817 43.1536 367.312 46.1032 367.312 49.6426V58.2316L369.2 59.1755V59.553H363.301V59.1755L365.189 58.2316V45.1829C365.189 42.021 364.552 41.6199 363.537 41.6199C363.112 41.6199 362.876 41.6907 362.334 41.8322H362.192C361.956 40.6996 361.956 40.6288 361.956 40.558C361.956 40.0625 362.334 39.8973 362.735 39.8973ZM375.922 43.7435C377.244 43.7435 378.282 44.2626 379.485 45.4661H379.603V43.9795H383.166V44.357L381.491 45.0413V54.5978H377.928V54.2203L379.603 53.4888V46.3155C378.99 45.7728 377.834 45.4897 376.984 45.4897C375.615 45.4897 374.648 46.2211 374.648 47.6133V54.5978H371.274V54.2203L372.76 53.4888V46.5043C372.76 44.6874 374.082 43.7435 375.922 43.7435ZM384.972 43.9795H390.022V44.357L388.347 45.1121V52.2618C388.96 52.8045 390.116 53.0876 390.966 53.0876C392.335 53.0876 393.302 52.3562 393.302 50.964V45.1121L391.627 44.357V43.9795H396.676V44.357L395.19 45.1121V52.073C395.19 53.8899 393.868 54.8338 392.028 54.8338C390.683 54.8338 389.645 54.2911 388.441 53.0876H388.323L388.111 54.8338H387.969L385.043 53.536V53.3708L386.459 52.1438V45.1121L384.972 44.357V43.9795Z" fill="black"/>
<path d="M448.114 43.7435C450.285 43.7435 453.116 45.2773 453.116 48.2268C453.116 50.6336 451.795 51.5067 448.94 52.8989C446.863 53.9135 445.92 54.5978 445.92 56.2024C445.92 57.5945 446.911 58.6564 448.303 58.6564C449.365 58.6564 450.073 58.326 451.158 57.5002L452.243 55.0225H452.621L452.385 58.7979C451.111 59.435 449.955 59.789 448.492 59.789C446.108 59.789 443.796 57.5945 443.796 55.4709C443.796 53.3 445.047 52.4034 447.265 51.2943C449.624 50.1145 451.087 49.619 451.087 47.5661C451.087 45.8908 449.978 44.8526 448.114 44.8526C447.029 44.8526 445.99 45.2537 444.834 46.1975L443.678 48.6987H443.3L443.536 44.829C444.999 44.0975 446.179 43.7435 448.114 43.7435ZM460.992 43.7435C462.904 43.7435 464.39 44.8526 465.122 46.2211V46.4571H465.051C463.871 45.82 462.88 45.5132 462.007 45.5132C459.01 45.5132 457.996 47.4953 457.925 49.6898H464.98L465.098 49.8078C465.098 53.0405 463.564 54.8338 461.087 54.8338C458.42 54.8338 456.061 52.3326 456.061 48.8167C456.061 45.7492 457.949 43.7435 460.992 43.7435ZM460.709 53.7955C462.078 53.7955 462.951 52.8989 463.305 50.7752H457.972C458.208 52.6865 459.199 53.7955 460.709 53.7955ZM467.443 38.5524H472.493V38.9299L470.817 39.685V43.9795C471.502 43.8379 472.304 43.7435 473.201 43.7435C476.15 43.7435 478.557 45.938 478.557 49.8078C478.557 52.9225 476.834 54.8338 474.451 54.8338C473.177 54.8338 472.139 54.409 470.935 53.3944H470.77L470.581 54.8338H470.44L467.514 53.536V53.3708L468.93 52.1438V39.685L467.443 38.9299V38.5524ZM473.153 53.2056C475.088 53.2056 476.669 51.9314 476.669 49.0291C476.669 46.0324 475.395 44.8762 473.885 44.8762C472.681 44.8762 471.761 45.1121 470.817 45.8672V52.4977C471.572 52.9697 472.375 53.2056 473.153 53.2056Z" fill="black"/>
<path d="M87.0083 204.612H93.0254V204.99L91.1377 205.933V220.186H90.6658L85.0027 216.646V215.82L89.132 217.897V205.933L87.0083 204.99V204.612ZM101.095 204.376C104.092 204.376 106.216 207.798 106.216 212.399C106.216 217.354 104.352 220.422 101.095 220.422C98.075 220.422 95.9749 217 95.9749 212.399C95.9749 207.444 97.839 204.376 101.095 204.376ZM101.591 205.485C99.302 205.485 98.1458 208.411 98.1458 213.178C98.1458 216.717 99.0896 219.336 100.694 219.336C102.912 219.336 104.045 216.41 104.045 211.667C104.045 208.104 103.148 205.485 101.591 205.485ZM112.893 204.376C115.89 204.376 118.014 207.798 118.014 212.399C118.014 217.354 116.15 220.422 112.893 220.422C109.873 220.422 107.773 217 107.773 212.399C107.773 207.444 109.637 204.376 112.893 204.376ZM113.389 205.485C111.1 205.485 109.944 208.411 109.944 213.178C109.944 216.717 110.888 219.336 112.492 219.336C114.71 219.336 115.843 216.41 115.843 211.667C115.843 208.104 114.946 205.485 113.389 205.485Z" fill="black"/>
<path d="M74.2003 267.656H80.2174V268.034L78.3297 268.978V283.23H77.8578L72.1947 279.69V278.864L76.324 280.941V268.978L74.2003 268.034V267.656ZM88.2873 267.42C91.284 267.42 93.4077 270.842 93.4077 275.443C93.4077 280.398 91.5436 283.466 88.2873 283.466C85.267 283.466 83.1669 280.044 83.1669 275.443C83.1669 270.488 85.031 267.42 88.2873 267.42ZM88.7828 268.529C86.494 268.529 85.3378 271.455 85.3378 276.222C85.3378 279.761 86.2816 282.38 87.8862 282.38C90.1042 282.38 91.2368 279.454 91.2368 274.712C91.2368 271.148 90.3402 268.529 88.7828 268.529ZM100.085 267.42C103.082 267.42 105.206 270.842 105.206 275.443C105.206 280.398 103.342 283.466 100.085 283.466C97.0651 283.466 94.9651 280.044 94.9651 275.443C94.9651 270.488 96.8292 267.42 100.085 267.42ZM100.581 268.529C98.2921 268.529 97.1359 271.455 97.1359 276.222C97.1359 279.761 98.0798 282.38 99.6843 282.38C101.902 282.38 103.035 279.454 103.035 274.712C103.035 271.148 102.138 268.529 100.581 268.529ZM111.884 267.42C114.88 267.42 117.004 270.842 117.004 275.443C117.004 280.398 115.14 283.466 111.884 283.466C108.863 283.466 106.763 280.044 106.763 275.443C106.763 270.488 108.627 267.42 111.884 267.42ZM112.379 268.529C110.09 268.529 108.934 271.455 108.934 276.222C108.934 279.761 109.878 282.38 111.482 282.38C113.7 282.38 114.833 279.454 114.833 274.712C114.833 271.148 113.936 268.529 112.379 268.529Z" fill="black"/>
<path d="M61.392 325.519H67.4091V325.896L65.5214 326.84V341.092H65.0495L59.3864 337.553V336.727L63.5157 338.803V326.84L61.392 325.896V325.519ZM75.479 325.283C78.4757 325.283 80.5994 328.704 80.5994 333.305C80.5994 338.261 78.7353 341.328 75.479 341.328C72.4587 341.328 70.3586 337.907 70.3586 333.305C70.3586 328.35 72.2227 325.283 75.479 325.283ZM75.9745 326.392C73.6857 326.392 72.5295 329.318 72.5295 334.084C72.5295 337.623 73.4733 340.243 75.0779 340.243C77.2959 340.243 78.4285 337.317 78.4285 332.574C78.4285 329.011 77.5319 326.392 75.9745 326.392ZM87.2771 325.283C90.2739 325.283 92.3975 328.704 92.3975 333.305C92.3975 338.261 90.5334 341.328 87.2771 341.328C84.2568 341.328 82.1568 337.907 82.1568 333.305C82.1568 328.35 84.0209 325.283 87.2771 325.283ZM87.7727 326.392C85.4838 326.392 84.3276 329.318 84.3276 334.084C84.3276 337.623 85.2715 340.243 86.876 340.243C89.0941 340.243 90.2267 337.317 90.2267 332.574C90.2267 329.011 89.33 326.392 87.7727 326.392ZM99.0753 325.283C102.072 325.283 104.196 328.704 104.196 333.305C104.196 338.261 102.332 341.328 99.0753 341.328C96.0549 341.328 93.9549 337.907 93.9549 333.305C93.9549 328.35 95.819 325.283 99.0753 325.283ZM99.5708 326.392C97.282 326.392 96.1257 329.318 96.1257 334.084C96.1257 337.623 97.0696 340.243 98.6741 340.243C100.892 340.243 102.025 337.317 102.025 332.574C102.025 329.011 101.128 326.392 99.5708 326.392ZM110.873 325.283C113.87 325.283 115.994 328.704 115.994 333.305C115.994 338.261 114.13 341.328 110.873 341.328C107.853 341.328 105.753 337.907 105.753 333.305C105.753 328.35 107.617 325.283 110.873 325.283ZM111.369 326.392C109.08 326.392 107.924 329.318 107.924 334.084C107.924 337.623 108.868 340.243 110.472 340.243C112.69 340.243 113.823 337.317 113.823 332.574C113.823 329.011 112.926 326.392 111.369 326.392Z" fill="black"/>
<line y1="-0.863617" x2="54.4079" y2="-0.863617" transform="matrix(-1 8.85569e-08 8.85569e-08 1 198.252 145.705)" stroke="black" stroke-width="1.72723" stroke-dasharray="4.32 4.32"/>
<line y1="-0.863617" x2="135.588" y2="-0.863617" transform="matrix(-1 0 0 1 279.432 211.34)" stroke="black" stroke-width="1.72723" stroke-dasharray="8.64 8.64"/>
<line y1="-0.863617" x2="216.768" y2="-0.863617" transform="matrix(-1 0 0 1 360.612 274.384)" stroke="black" stroke-width="1.72723" stroke-dasharray="12.95 12.95"/>
<line y1="-0.863617" x2="297.948" y2="-0.863617" transform="matrix(-1 0 0 1 441.792 332.246)" stroke="black" stroke-width="1.72723" stroke-dasharray="17.27 17.27"/>
<path d="M220.274 67.9795V71.0022H214.229V67.9795H220.274ZM214.229 67.1159C214.229 65.4465 215.582 64.0932 217.251 64.0932C218.921 64.0932 220.274 65.4465 220.274 67.1159H214.229ZM214.229 67.9795V67.1159H220.274V67.9795H214.229Z" fill="black"/>
<path d="M301.454 67.9795V71.0022H295.409V67.9795H301.454ZM295.409 67.1159C295.409 65.4465 296.762 64.0932 298.432 64.0932C300.101 64.0932 301.454 65.4465 301.454 67.1159H295.409ZM295.409 67.9795V67.1159H301.454V67.9795H295.409Z" fill="black"/>
<path d="M382.634 67.9795V71.0022H376.589V67.9795H382.634ZM376.589 67.1159C376.589 65.4465 377.942 64.0932 379.611 64.0932C381.281 64.0932 382.634 65.4465 382.634 67.1159H376.589ZM376.589 67.9795V67.1159H382.634V67.9795H376.589Z" fill="black"/>
<path d="M463.814 67.9794V71.002H457.769V67.9794H463.814ZM457.769 67.1158C457.769 65.4464 459.122 64.0931 460.792 64.0931C462.461 64.0931 463.814 65.4464 463.814 67.1158H457.769ZM457.769 67.9794V67.1158H463.814V67.9794H457.769Z" fill="black"/>
<defs>
<filter id="filter0_d_116_975" x="0.112793" y="0.244629" width="680" height="678" filterUnits="userSpaceOnUse" color-interpolation-filters="sRGB">
<feFlood flood-opacity="0" result="BackgroundImageFix"/>
<feColorMatrix in="SourceAlpha" type="matrix" values="0 0 0 0 0 0 0 0 0 0 0 0 0 0 0 0 0 0 127 0" result="hardAlpha"/>
<feOffset dx="6" dy="6"/>
<feGaussianBlur stdDeviation="6"/>
<feComposite in2="hardAlpha" operator="out"/>
<feColorMatrix type="matrix" values="0 0 0 0 0 0 0 0 0 0 0 0 0 0 0 0 0 0 0.25 0"/>
<feBlend mode="normal" in2="BackgroundImageFix" result="effect1_dropShadow_116_975"/>
<feBlend mode="normal" in="SourceGraphic" in2="effect1_dropShadow_116_975" result="shape"/>
</filter>
</defs>
</svg>
