<svg width="681" height="679" viewBox="0 0 681 679" fill="none" xmlns="http://www.w3.org/2000/svg">
<g filter="url(#filter0_d_116_946)">
<rect x="8.93408" y="8.96387" width="652" height="650" rx="8" fill="white" stroke="black" stroke-width="4"/>
<path d="M32.4526 641.373H38.382V641.001L36.5218 640.071V626.027H36.0567L30.4761 629.515V630.328L34.5453 628.282V640.071L32.4526 641.001V641.373Z" fill="black"/>
<path d="M226.946 255.422C226.946 253.071 225.041 251.166 222.69 251.166C220.34 251.166 218.435 253.071 218.435 255.422L226.946 255.422ZM218.435 579.668L218.435 583.923L226.946 583.923L226.946 579.668L218.435 579.668ZM218.435 255.422L218.435 579.668L226.946 579.668L226.946 255.422L218.435 255.422Z" fill="black"/>
<path d="M591.191 592.434C593.541 592.434 595.447 590.529 595.447 588.178C595.447 585.828 593.541 583.923 591.191 583.923L591.191 592.434ZM222.691 583.923L218.435 583.923L218.435 592.434L222.691 592.434L222.691 583.923ZM591.191 583.923L222.691 583.923L222.691 592.434L591.191 592.434L591.191 583.923Z" fill="black"/>
<rect x="280.987" y="518.819" width="35.7437" height="65.5301" fill="#FF9494" stroke="black" stroke-width="0.851041"/>
<rect x="360.985" y="454.14" width="35.7437" height="130.209" fill="#BDFF94" stroke="black" stroke-width="0.851041"/>
<rect x="440.983" y="392.014" width="35.7437" height="192.335" fill="#9498FF" stroke="black" stroke-width="0.851041"/>
<rect x="520.98" y="334.994" width="35.7437" height="249.355" fill="#FFE794" stroke="black" stroke-width="0.851041"/>
<path d="M181.857 525.372H187.786V525L185.926 524.07V510.026H185.461L179.88 513.513V514.327L183.949 512.281V524.07L181.857 525V525.372ZM195.739 525.605C198.692 525.605 200.784 522.233 200.784 517.699C200.784 512.816 198.947 509.793 195.739 509.793C192.762 509.793 190.693 513.165 190.693 517.699C190.693 522.582 192.53 525.605 195.739 525.605ZM196.227 524.512C193.971 524.512 192.832 521.629 192.832 516.932C192.832 513.444 193.762 510.863 195.343 510.863C197.529 510.863 198.645 513.746 198.645 518.42C198.645 521.931 197.761 524.512 196.227 524.512Z" fill="black"/>
<path d="M282.444 623.01C283.374 623.01 283.769 622.777 285.118 621.289C286.466 619.801 286.955 616.894 286.955 613.406V604.942L288.815 604.012V603.64H283.002V604.012L284.862 604.942V617.801C284.862 620.917 284.234 621.312 283.234 621.312C282.816 621.312 282.583 621.242 282.048 621.103H281.909C281.676 622.219 281.676 622.289 281.676 622.358C281.676 622.847 282.048 623.01 282.444 623.01ZM293.358 619.219C294.66 619.219 295.916 618.615 296.729 617.824H296.869C297.125 618.661 297.729 619.219 298.683 619.219C299.729 619.219 300.473 618.615 300.845 617.94V617.871L300.775 617.824H299.892C299.194 617.824 298.799 617.661 298.59 617.429V610.825C298.59 608.872 296.892 608.291 295.241 608.291C294.172 608.291 293.218 608.709 292.358 609.267C291.521 609.802 291.126 610.569 291.126 611.244C291.126 611.802 291.265 611.895 291.73 611.895H292.939L293.056 611.778V611.127C293.056 610.058 293.451 609.383 294.637 609.383C295.706 609.383 296.729 610.244 296.729 611.313V613.011L294.52 613.522C291.846 614.15 290.823 615.29 290.823 616.801C290.823 618.312 291.893 619.219 293.358 619.219ZM292.637 616.336C292.637 615.29 293.032 614.499 296.729 613.801V617.243C295.799 617.638 295.125 617.778 294.381 617.778C293.265 617.778 292.637 617.289 292.637 616.336ZM302.223 618.987H307.199V618.615L305.548 617.871V610.825C306.153 610.29 307.292 610.011 308.129 610.011C309.478 610.011 310.431 610.732 310.431 612.104V617.871L308.78 618.615V618.987H313.756V618.615L312.292 617.871V611.011C312.292 609.221 310.989 608.291 309.176 608.291C307.85 608.291 306.827 608.825 305.641 610.011H305.525L305.316 608.291H305.176L302.293 609.569V609.732L303.688 610.941V617.871L302.223 618.615V618.987Z" fill="black"/>
<path d="M359.218 618.987H364.38V618.615L362.497 617.708L362.799 606.407L368.263 619.103H369.31L374.867 606.244L375.1 617.708L373.379 618.615V618.987H378.727V618.615L377.099 617.685L376.704 604.942L378.657 604.012V603.64H374.565L369.217 616.01L363.845 603.64H359.544V604.012L361.543 604.965L361.055 617.685L359.218 618.615V618.987ZM383.749 619.219C385.052 619.219 386.307 618.615 387.121 617.824H387.261C387.516 618.661 388.121 619.219 389.074 619.219C390.121 619.219 390.865 618.615 391.237 617.94V617.871L391.167 617.824H390.283C389.586 617.824 389.191 617.661 388.981 617.429V610.825C388.981 608.872 387.284 608.291 385.633 608.291C384.563 608.291 383.61 608.709 382.75 609.267C381.912 609.802 381.517 610.569 381.517 611.244C381.517 611.802 381.657 611.895 382.122 611.895H383.331L383.447 611.778V611.127C383.447 610.058 383.842 609.383 385.028 609.383C386.098 609.383 387.121 610.244 387.121 611.313V613.011L384.912 613.522C382.238 614.15 381.215 615.29 381.215 616.801C381.215 618.312 382.284 619.219 383.749 619.219ZM383.029 616.336C383.029 615.29 383.424 614.499 387.121 613.801V617.243C386.191 617.638 385.517 617.778 384.772 617.778C383.656 617.778 383.029 617.289 383.029 616.336ZM392.708 618.987H397.684V618.615L396.033 617.871V611.197C396.498 610.523 397.033 610.197 397.684 610.197C397.986 610.197 398.312 610.221 398.66 610.36L399.544 610.709H399.707L400.172 609.569C400.242 609.407 400.265 609.267 400.265 609.151C400.265 608.872 399.916 608.639 399.567 608.5C399.358 608.407 398.986 608.291 398.73 608.291C397.939 608.291 397.172 608.523 396.103 610.267H396.01L395.8 608.291H395.661L392.777 609.569V609.732L394.173 610.941V617.871L392.708 618.615V618.987Z" fill="black"/>
<path d="M442.649 623.01C443.579 623.01 443.974 622.777 445.323 621.289C446.672 619.801 447.16 616.894 447.16 613.406V604.942L449.02 604.012V603.64H443.207V604.012L445.067 604.942V617.801C445.067 620.917 444.439 621.312 443.439 621.312C443.021 621.312 442.788 621.242 442.254 621.103H442.114C441.881 622.219 441.881 622.289 441.881 622.358C441.881 622.847 442.254 623.01 442.649 623.01ZM455.644 619.219C456.946 619.219 457.97 618.708 459.155 617.522H459.272V618.987H462.783V618.615L461.132 617.94V608.523H457.621V608.895L459.272 609.616V616.685C458.667 617.22 457.528 617.499 456.691 617.499C455.342 617.499 454.389 616.778 454.389 615.406V608.523H451.064V608.895L452.528 609.616V616.499C452.528 618.289 453.831 619.219 455.644 619.219ZM464.563 618.987H469.539V618.615L467.888 617.871V610.825C468.493 610.29 469.632 610.011 470.469 610.011C471.818 610.011 472.771 610.732 472.771 612.104V617.871L471.12 618.615V618.987H476.096V618.615L474.631 617.871V611.011C474.631 609.221 473.329 608.291 471.515 608.291C470.19 608.291 469.167 608.825 467.981 610.011H467.865L467.655 608.291H467.516L464.633 609.569V609.732L466.028 610.941V617.871L464.563 618.615V618.987Z" fill="black"/>
<path d="M526.784 619.219C528.924 619.219 531.714 617.708 531.714 614.801C531.714 612.43 530.412 611.569 527.598 610.197C525.552 609.197 524.622 608.523 524.622 606.942C524.622 605.57 525.599 604.524 526.97 604.524C528.017 604.524 528.714 604.849 529.784 605.663L530.854 608.105H531.226L530.993 604.384C529.738 603.756 528.598 603.408 527.156 603.408C524.808 603.408 522.529 605.57 522.529 607.663C522.529 609.802 523.762 610.686 525.947 611.778C528.273 612.941 529.714 613.429 529.714 615.452C529.714 617.103 528.621 618.126 526.784 618.126C525.715 618.126 524.692 617.731 523.552 616.801L522.413 614.336H522.041L522.273 618.15C523.715 618.871 524.878 619.219 526.784 619.219ZM539.475 619.219C541.359 619.219 542.824 618.126 543.545 616.778V616.545H543.475C542.312 617.173 541.336 617.475 540.475 617.475C537.522 617.475 536.522 615.522 536.452 613.36H543.405L543.521 613.243C543.521 610.058 542.01 608.291 539.568 608.291C536.941 608.291 534.616 610.755 534.616 614.22C534.616 617.243 536.476 619.219 539.475 619.219ZM539.196 609.314C540.545 609.314 541.405 610.197 541.754 612.29H536.499C536.731 610.407 537.708 609.314 539.196 609.314ZM545.832 624.335H550.808V623.963L549.157 623.219V618.987C549.831 619.126 550.622 619.219 551.506 619.219C554.412 619.219 556.784 617.057 556.784 613.243C556.784 610.174 555.087 608.291 552.738 608.291C551.482 608.291 550.459 608.709 549.273 609.709H549.111L548.925 608.291H548.785L545.902 609.569V609.732L547.297 610.941V623.219L545.832 623.963V624.335ZM551.459 609.895C553.366 609.895 554.924 611.151 554.924 614.011C554.924 616.964 553.668 618.103 552.18 618.103C550.994 618.103 550.087 617.871 549.157 617.127V610.593C549.901 610.128 550.692 609.895 551.459 609.895Z" fill="black"/>
<path d="M170.937 460.693H176.867V460.321L175.007 459.391V445.346H174.542L168.961 448.834V449.648L173.03 447.602V459.391L170.937 460.321V460.693ZM184.819 460.926C187.772 460.926 189.865 457.554 189.865 453.02C189.865 448.137 188.028 445.114 184.819 445.114C181.843 445.114 179.773 448.486 179.773 453.02C179.773 457.903 181.61 460.926 184.819 460.926ZM185.307 459.833C183.052 459.833 181.913 456.95 181.913 452.253C181.913 448.765 182.843 446.184 184.424 446.184C186.61 446.184 187.726 449.067 187.726 453.741C187.726 457.252 186.842 459.833 185.307 459.833ZM196.446 460.926C199.399 460.926 201.491 457.554 201.491 453.02C201.491 448.137 199.654 445.114 196.446 445.114C193.469 445.114 191.4 448.486 191.4 453.02C191.4 457.903 193.237 460.926 196.446 460.926ZM196.934 459.833C194.678 459.833 193.539 456.95 193.539 452.253C193.539 448.765 194.469 446.184 196.05 446.184C198.236 446.184 199.352 449.067 199.352 453.741C199.352 457.252 198.468 459.833 196.934 459.833Z" fill="black"/>
<path d="M158.316 398.567H164.245V398.195L162.385 397.265V383.221H161.92L156.339 386.708V387.522L160.409 385.476V397.265L158.316 398.195V398.567ZM172.198 398.8C175.151 398.8 177.243 395.428 177.243 390.894C177.243 386.011 175.407 382.988 172.198 382.988C169.221 382.988 167.152 386.36 167.152 390.894C167.152 395.777 168.989 398.8 172.198 398.8ZM172.686 397.707C170.43 397.707 169.291 394.824 169.291 390.127C169.291 386.639 170.221 384.058 171.802 384.058C173.988 384.058 175.104 386.941 175.104 391.615C175.104 395.126 174.221 397.707 172.686 397.707ZM183.824 398.8C186.777 398.8 188.87 395.428 188.87 390.894C188.87 386.011 187.033 382.988 183.824 382.988C180.848 382.988 178.778 386.36 178.778 390.894C178.778 395.777 180.615 398.8 183.824 398.8ZM184.312 397.707C182.057 397.707 180.917 394.824 180.917 390.127C180.917 386.639 181.848 384.058 183.429 384.058C185.614 384.058 186.731 386.941 186.731 391.615C186.731 395.126 185.847 397.707 184.312 397.707ZM195.45 398.8C198.403 398.8 200.496 395.428 200.496 390.894C200.496 386.011 198.659 382.988 195.45 382.988C192.474 382.988 190.404 386.36 190.404 390.894C190.404 395.777 192.241 398.8 195.45 398.8ZM195.939 397.707C193.683 397.707 192.544 394.824 192.544 390.127C192.544 386.639 193.474 384.058 195.055 384.058C197.241 384.058 198.357 386.941 198.357 391.615C198.357 395.126 197.473 397.707 195.939 397.707Z" fill="black"/>
<path d="M145.694 341.547H151.624V341.175L149.763 340.245V326.201H149.298L143.718 329.689V330.502L147.787 328.456V340.245L145.694 341.175V341.547ZM159.576 341.78C162.529 341.78 164.622 338.408 164.622 333.874C164.622 328.991 162.785 325.968 159.576 325.968C156.6 325.968 154.53 329.34 154.53 333.874C154.53 338.757 156.367 341.78 159.576 341.78ZM160.064 340.687C157.809 340.687 156.669 337.804 156.669 333.107C156.669 329.619 157.6 327.038 159.181 327.038C161.367 327.038 162.483 329.921 162.483 334.595C162.483 338.106 161.599 340.687 160.064 340.687ZM171.202 341.78C174.155 341.78 176.248 338.408 176.248 333.874C176.248 328.991 174.411 325.968 171.202 325.968C168.226 325.968 166.157 329.34 166.157 333.874C166.157 338.757 167.994 341.78 171.202 341.78ZM171.691 340.687C169.435 340.687 168.296 337.804 168.296 333.107C168.296 329.619 169.226 327.038 170.807 327.038C172.993 327.038 174.109 329.921 174.109 334.595C174.109 338.106 173.225 340.687 171.691 340.687ZM182.829 341.78C185.782 341.78 187.875 338.408 187.875 333.874C187.875 328.991 186.038 325.968 182.829 325.968C179.852 325.968 177.783 329.34 177.783 333.874C177.783 338.757 179.62 341.78 182.829 341.78ZM183.317 340.687C181.062 340.687 179.922 337.804 179.922 333.107C179.922 329.619 180.852 327.038 182.433 327.038C184.619 327.038 185.735 329.921 185.735 334.595C185.735 338.106 184.852 340.687 183.317 340.687ZM194.455 341.78C197.408 341.78 199.501 338.408 199.501 333.874C199.501 328.991 197.664 325.968 194.455 325.968C191.479 325.968 189.409 329.34 189.409 333.874C189.409 338.757 191.246 341.78 194.455 341.78ZM194.943 340.687C192.688 340.687 191.548 337.804 191.548 333.107C191.548 329.619 192.479 327.038 194.06 327.038C196.245 327.038 197.362 329.921 197.362 334.595C197.362 338.106 196.478 340.687 194.943 340.687Z" fill="black"/>
<line x1="280.561" y1="519.244" x2="226.945" y2="519.244" stroke="black" stroke-width="1.70208" stroke-dasharray="4.26 4.26"/>
<line x1="360.559" y1="454.565" x2="226.946" y2="454.565" stroke="black" stroke-width="1.70208" stroke-dasharray="8.51 8.51"/>
<line x1="440.557" y1="392.439" x2="226.946" y2="392.439" stroke="black" stroke-width="1.70208" stroke-dasharray="12.77 12.77"/>
<line x1="520.554" y1="335.419" x2="226.945" y2="335.419" stroke="black" stroke-width="1.70208" stroke-dasharray="17.02 17.02"/>
<path d="M302.263 594.987V592.008H296.306V594.987H302.263ZM296.306 595.838C296.306 597.483 297.639 598.817 299.284 598.817C300.929 598.817 302.263 597.483 302.263 595.838H296.306ZM296.306 594.987V595.838H302.263V594.987H296.306Z" fill="black"/>
<path d="M382.261 594.987V592.008H376.304V594.987H382.261ZM376.304 595.838C376.304 597.483 377.637 598.817 379.282 598.817C380.927 598.817 382.261 597.483 382.261 595.838H376.304ZM376.304 594.987V595.838H382.261V594.987H376.304Z" fill="black"/>
<path d="M462.258 594.987V592.008H456.301V594.987H462.258ZM456.301 595.838C456.301 597.483 457.635 598.817 459.28 598.817C460.925 598.817 462.258 597.483 462.258 595.838H456.301ZM456.301 594.987V595.838H462.258V594.987H456.301Z" fill="black"/>
<path d="M542.256 594.987V592.008H536.299V594.987H542.256ZM536.299 595.838C536.299 597.483 537.633 598.817 539.278 598.817C540.923 598.817 542.256 597.483 542.256 595.838H536.299ZM536.299 594.987V595.838H542.256V594.987H536.299Z" fill="black"/>
</g>
<defs>
<filter id="filter0_d_116_946" x="0.934082" y="0.963867" width="680" height="678" filterUnits="userSpaceOnUse" color-interpolation-filters="sRGB">
<feFlood flood-opacity="0" result="BackgroundImageFix"/>
<feColorMatrix in="SourceAlpha" type="matrix" values="0 0 0 0 0 0 0 0 0 0 0 0 0 0 0 0 0 0 127 0" result="hardAlpha"/>
<feOffset dx="6" dy="6"/>
<feGaussianBlur stdDeviation="6"/>
<feComposite in2="hardAlpha" operator="out"/>
<feColorMatrix type="matrix" values="0 0 0 0 0 0 0 0 0 0 0 0 0 0 0 0 0 0 0.25 0"/>
<feBlend mode="normal" in2="BackgroundImageFix" result="effect1_dropShadow_116_946"/>
<feBlend mode="normal" in="SourceGraphic" in2="effect1_dropShadow_116_946" result="shape"/>
</filter>
</defs>
</svg>
