<svg width="1280" height="1428" viewBox="0 0 1280 1428" fill="none" xmlns="http://www.w3.org/2000/svg">
<g filter="url(#filter0_d_105_426)">
<path d="M105.027 16.7459L1229.47 17.2261L1229.03 1036.4L115.876 1035.92C91.883 1035.91 72.4412 1016.45 72.4514 992.458L72.8544 48.8912C72.862 31.1302 87.2662 16.7383 105.027 16.7459Z" fill="url(#paint0_linear_105_426)" stroke="black" stroke-width="3.38517"/>
<path d="M86.9672 29.1502L1211.41 29.6304L1210.98 1032.65L97.8227 1032.17C73.8298 1032.16 54.388 1012.71 54.3982 988.713L54.7943 61.2955C54.8019 43.5346 69.2062 29.1426 86.9672 29.1502Z" fill="url(#paint1_linear_105_426)" stroke="black" stroke-width="3.38517"/>
<path d="M65.2726 17.2694L1189.4 17.2694L1189.4 1040.15L76.5565 1040.15C52.7334 1040.15 33.4209 1020.84 33.4209 997.012L33.4209 49.1211C33.4209 31.5299 47.6814 17.2694 65.2726 17.2694Z" fill="url(#paint2_linear_105_426)" stroke="black" stroke-width="4"/>
<path d="M62.1354 16.9622L1189.96 16.9623L1189.96 74.5101L62.1355 74.5101C46.2441 74.5101 33.3615 61.6275 33.3615 45.7362C33.3615 29.8448 46.244 16.9622 62.1354 16.9622Z" fill="#C0C0C0" stroke="black" stroke-width="3.38517"/>
<line x1="58.3726" y1="35.1072" x2="1191.28" y2="35.1072" stroke="black" stroke-width="3.38517"/>
<line x1="58.7471" y1="51.9479" x2="1191.65" y2="51.9479" stroke="black" stroke-width="3.38517"/>
<line x1="406.473" y1="466.268" x2="406.473" y2="918.483" stroke="black" stroke-width="3" stroke-linecap="round"/>
<line x1="795.667" y1="466.279" x2="795.667" y2="918.489" stroke="black" stroke-width="3" stroke-linecap="round"/>
<line x1="77.3472" y1="978.898" x2="1161.03" y2="978.898" stroke="black" stroke-width="5" stroke-linecap="round"/>
<line x1="74.125" y1="344.201" x2="1144.12" y2="344.201" stroke="black" stroke-width="10" stroke-linecap="round"/>
<line x1="71.6255" y1="356.701" x2="1146.63" y2="356.701" stroke="black" stroke-width="5" stroke-linecap="round"/>
</g>
<defs>
<filter id="filter0_d_105_426" x="28.4209" y="0.0532227" width="1237.74" height="1065.09" filterUnits="userSpaceOnUse" color-interpolation-filters="sRGB">
<feFlood flood-opacity="0" result="BackgroundImageFix"/>
<feColorMatrix in="SourceAlpha" type="matrix" values="0 0 0 0 0 0 0 0 0 0 0 0 0 0 0 0 0 0 127 0" result="hardAlpha"/>
<feOffset dx="16" dy="4"/>
<feGaussianBlur stdDeviation="9.5"/>
<feComposite in2="hardAlpha" operator="out"/>
<feColorMatrix type="matrix" values="0 0 0 0 0 0 0 0 0 0 0 0 0 0 0 0 0 0 0.25 0"/>
<feBlend mode="normal" in2="BackgroundImageFix" result="effect1_dropShadow_105_426"/>
<feBlend mode="normal" in="SourceGraphic" in2="effect1_dropShadow_105_426" result="shape"/>
</filter>
<linearGradient id="paint0_linear_105_426" x1="56.3304" y1="429.058" x2="691.613" y2="429.33" gradientUnits="userSpaceOnUse">
<stop stop-opacity="0.1"/>
<stop offset="0.0001" stop-color="#EEEEEE"/>
<stop offset="1" stop-color="white"/>
</linearGradient>
<linearGradient id="paint1_linear_105_426" x1="38.2731" y1="434.924" x2="673.556" y2="435.195" gradientUnits="userSpaceOnUse">
<stop stop-opacity="0.1"/>
<stop offset="0.0001" stop-color="#EEEEEE"/>
<stop offset="1" stop-color="white"/>
</linearGradient>
<linearGradient id="paint2_linear_105_426" x1="16.7518" y1="431.046" x2="652.035" y2="431.046" gradientUnits="userSpaceOnUse">
<stop stop-color="white"/>
<stop offset="0.0001" stop-color="#EEEEEE"/>
<stop offset="1" stop-color="white"/>
</linearGradient>
</defs>
</svg>
