<svg width="488" height="59" viewBox="0 0 488 59" fill="none" xmlns="http://www.w3.org/2000/svg">
<g filter="url(#filter0_d_117_86)">
<path d="M48.0918 29.0305V37.1699L9.41651 23.0305L48.0918 8.89116V17.0305V29.0305ZM52.0918 17.0305V8.03052L433.592 8.03052H460.092V38.0305H433.592L52.0918 38.0305V29.0305V17.0305Z" fill="url(#paint0_linear_117_86)" stroke="black" stroke-width="4"/>
<path d="M51.5918 8.176V17.0305V29.0305V37.885L10.9603 23.0305L51.5918 8.176Z" fill="url(#paint1_linear_117_86)" stroke="black" stroke-width="3"/>
<path d="M434.092 17.0305V7.53052H459.592V38.5305H434.092V29.0305V17.0305Z" fill="#B7B7B7" stroke="black" stroke-width="3"/>
<line x1="51" y1="18" x2="434" y2="18" stroke="black" stroke-width="4"/>
<line x1="51" y1="28" x2="434" y2="28" stroke="black" stroke-width="4"/>
</g>
<defs>
<filter id="filter0_d_117_86" x="0.639528" y="0.173712" width="487.229" height="58.7287" filterUnits="userSpaceOnUse" color-interpolation-filters="sRGB">
<feFlood flood-opacity="0" result="BackgroundImageFix"/>
<feColorMatrix in="SourceAlpha" type="matrix" values="0 0 0 0 0 0 0 0 0 0 0 0 0 0 0 0 0 0 127 0" result="hardAlpha"/>
<feOffset dx="10.4121" dy="6.50756"/>
<feGaussianBlur stdDeviation="6.18218"/>
<feComposite in2="hardAlpha" operator="out"/>
<feColorMatrix type="matrix" values="0 0 0 0 0 0 0 0 0 0 0 0 0 0 0 0 0 0 0.25 0"/>
<feBlend mode="normal" in2="BackgroundImageFix" result="effect1_dropShadow_117_86"/>
<feBlend mode="normal" in="SourceGraphic" in2="effect1_dropShadow_117_86" result="shape"/>
</filter>
<linearGradient id="paint0_linear_117_86" x1="249.785" y1="9.5458" x2="249.793" y2="36.0882" gradientUnits="userSpaceOnUse">
<stop stop-color="#FBFF34"/>
<stop offset="1" stop-color="#FFBA34"/>
</linearGradient>
<linearGradient id="paint1_linear_117_86" x1="16.1382" y1="23.3216" x2="50.7241" y2="22.7648" gradientUnits="userSpaceOnUse">
<stop/>
<stop offset="1" stop-color="#FFCC91"/>
</linearGradient>
</defs>
</svg>
