<svg width="877" height="1408" viewBox="0 0 877 1408" fill="none" xmlns="http://www.w3.org/2000/svg">
<g filter="url(#filter0_d_117_11)">
<rect x="-509.239" y="211.006" width="1294.31" height="1088" rx="10.5412" fill="#FFC3C3"/>
<rect x="-507.733" y="212.512" width="1291.29" height="1084.99" rx="9.03529" stroke="black" stroke-width="3.01176"/>
</g>
<rect x="-508.239" y="233.841" width="1260.68" height="1037.81" fill="#F2F2F2" stroke="black" stroke-width="2"/>
<rect x="-496.945" y="233.841" width="1242.61" height="1037.81" fill="#F2F2F2" stroke="black" stroke-width="2"/>
<rect x="-493.18" y="233.841" width="1232.07" height="1037.81" fill="#F2F2F2" stroke="black" stroke-width="2"/>
<rect x="-496.945" y="233.841" width="1229.06" height="1037.81" fill="#F2F2F2" stroke="black" stroke-width="2"/>
<rect x="-508.239" y="233.841" width="1233.58" height="1037.81" fill="#F2F2F2" stroke="black" stroke-width="2"/>
<rect x="-508.239" y="233.841" width="1226.8" height="1037.81" fill="#F2F2F2" stroke="black" stroke-width="2"/>
<rect x="-508.239" y="233.841" width="1220.02" height="1037.81" fill="#F2F2F2" stroke="black" stroke-width="2"/>
<rect x="-508.239" y="233.841" width="1213.25" height="1037.81" fill="#F2F2F2" stroke="black" stroke-width="2"/>
<path d="M-144.999 314.822H-89.9246V310.761L-110.736 301.371L-94.493 262.285H-35.3577L-19.1145 301.371L-40.9413 310.761V314.822H50.4265V310.761L32.9144 301.878L-33.5811 146.045H-62.7681L-130.025 301.878L-144.999 310.761V314.822ZM-88.6556 248.326L-64.7985 191.729L-41.1951 248.326H-88.6556Z" fill="black"/>
<path d="M-3.9817 442.275H64.2269C96.745 442.275 120.737 426.016 120.737 404.205C120.737 386.558 105.271 374.661 79.4945 371.29C98.3312 366.73 109.038 354.238 109.038 340.755C109.038 321.125 87.8223 311.409 59.4682 311.409H-3.9817V314.582L12.8722 322.711L12.8722 430.973L-3.9817 439.102V442.275ZM49.5541 322.315C68.9857 322.315 78.5031 330.841 78.5031 346.703C78.5031 360.98 68.1925 369.902 50.7438 369.902H42.8126V322.315H49.5541ZM56.494 379.618C77.3135 379.618 89.012 387.747 89.012 405.196C89.012 420.464 77.3135 431.369 57.8819 431.369H42.8126V379.618H56.494Z" fill="black"/>
<path d="M136.147 575.124C160.512 575.124 180.055 570.048 194.014 561.927L197.567 519.035H193.252L170.41 553.044C161.527 558.12 151.883 561.673 139.193 561.673C109.752 561.673 87.1641 534.263 87.1641 489.848C87.1641 444.925 110.514 415.231 141.477 415.231C151.883 415.231 158.482 417.515 166.857 422.845L190.968 462.184H195.536L192.745 414.723C178.278 407.617 166.857 402.541 140.208 402.541C91.7324 402.541 47.3175 441.88 47.3175 492.386C47.3175 539.592 82.8495 575.124 136.147 575.124Z" fill="black"/>
<path d="M168.062 510.243H215.745C246.867 510.243 269.852 488.544 269.852 458.849C269.852 434.294 250.579 416.02 216.744 416.02H168.062V418.305L180.197 424.158V502.106L168.062 507.959V510.243ZM210.891 423.872C235.018 423.872 247.438 439.291 247.438 463.275C247.438 487.116 235.018 502.391 212.89 502.391H201.754V423.872H210.891Z" fill="black"/>
<path d="M252.039 469.725H342.931V437.365H340.393L328.02 461H289.474V420.075H313.902L322.785 433.4H325.323V397.709H322.785L313.902 411.351H289.474V373.757H324.213L335.951 392.474H338.489V365.032H252.039V367.57L265.522 374.074V460.683L252.039 467.187V469.725Z" fill="black"/>
<path d="M340.678 470.965H405.016V467.919L385.601 460.115V410.815H413.011L423.671 426.804H426.716V385.117H423.671L413.011 401.487H385.601V355.804H426.526L439.47 378.265H442.515V345.334H340.678V348.38L356.858 356.184V460.115L340.678 467.919V470.965Z" fill="black"/>
<path d="M359.903 587.872C376.274 587.872 397.022 581.59 408.633 571.882V541.046L422.909 531.909V528.863H363.139V531.909L380.081 540.855V576.07C374.941 577.022 369.802 577.403 365.424 577.403C342.201 577.403 323.927 556.464 323.927 522.391C323.927 489.651 342.962 467.761 366.756 467.761C374.941 467.761 380.652 469.284 387.694 473.472L405.778 501.072H409.204L407.11 467.571C396.26 462.241 386.172 458.434 365.995 458.434C327.734 458.434 294.233 486.796 294.233 525.818C294.233 561.223 323.356 587.872 359.903 587.872Z" fill="black"/>
<path d="M364.384 651.383H423.532V648.369L408.839 640.646V592.613H461.017V640.646L445.947 648.369V651.383H505.283V648.369L489.46 640.646V537.798L505.283 530.075V527.061H445.947V530.075L461.017 537.798V582.253H408.839V537.798L423.532 530.075V527.061H364.384V530.075L380.396 537.798V640.646L364.384 648.369V651.383Z" fill="black"/>
<path d="M-41.6073 644.254C-30.4401 644.254 -21.5571 636.64 -9.62852 622.934C3.31526 608.214 20.066 577.25 20.066 538.165V447.305L41.639 436.899V432.838H-39.8307V436.899L-18.2577 447.305V587.656C-18.2577 616.336 -24.0951 620.143 -33.2319 620.143C-37.0389 620.143 -39.3231 619.381 -44.1453 618.112H-46.4295C-48.4599 628.264 -49.7288 633.848 -49.7288 636.893C-49.7288 642.223 -46.4295 644.254 -41.6073 644.254Z" fill="black"/>
<path d="M-5.50469 687.59H75.965V683.529L54.392 673.123V534.548L75.965 524.143V520.082H-5.50469V524.143L16.0683 534.548V673.123L-5.50469 683.529V687.59ZM54.392 603.074L121.395 687.59H177.739V683.529L159.719 675.915L89.4163 587.846L148.298 531.249L165.049 524.143V520.082H105.152V524.143L124.187 533.279L54.392 603.074Z" fill="black"/>
<path d="M119.048 934.455H329.574V841.565H323.483L292.647 913.517H208.893V704.894L245.059 689.285V683.194H119.048V689.285L151.407 704.894V912.755L119.048 928.364V934.455Z" fill="black"/>
<path d="M157.879 689.074H203.373V686.029L186.812 678.415L189.287 588.379L233.067 690.026H243.727L287.126 588.189L289.03 678.415L273.802 686.029V689.074H331.478V686.029L317.011 678.225L313.585 572.39L330.336 566.489V563.444H284.652L246.772 652.147L208.512 563.444H161.305V566.489L177.866 574.294L174.059 678.225L157.879 686.029V689.074Z" fill="black"/>
<path d="M235.891 850.18H304.163V846.119L275.229 835.714V729.118L384.617 851.449H400.353V697.139L421.672 686.733V682.672H353.654V686.733L382.587 696.885V794.09L284.112 682.672H235.891V686.733L257.463 697.393V835.714L235.891 846.119V850.18Z" fill="black"/>
<path d="M479.998 720.143C500.516 720.143 515.673 705.295 515.673 685.087C515.673 664.878 500.516 650.031 479.998 650.031C459.583 650.031 444.427 664.878 444.427 685.087C444.427 705.295 459.583 720.143 479.998 720.143ZM481.648 714.781C470.1 714.781 460.821 701.687 460.821 681.787C460.821 665.6 468.347 655.289 478.658 655.289C490.206 655.289 499.176 668.28 499.176 688.18C499.176 704.367 492.062 714.781 481.648 714.781Z" fill="black"/>
<path d="M398.988 885.871H484.773V881.81L458.885 871.404V811.254H480.712C522.081 811.254 553.045 791.965 553.045 763.539C553.045 732.068 526.65 718.363 486.803 718.363H398.988V722.424L420.561 732.83V871.404L398.988 881.81V885.871ZM469.545 732.322C497.97 732.322 514.213 742.22 514.213 765.824C514.213 784.859 497.97 798.818 471.068 798.818H458.885V732.322H469.545Z" fill="black"/>
<path d="M-28.9492 830.035C-14.7364 830.035 -4.58442 826.989 3.02956 823.182V817.345C-0.777426 818.36 -6.10722 819.629 -13.7212 819.629C-28.6954 819.629 -45.7 812.523 -73.8717 788.666C-38.8474 777.498 -15.244 746.535 -15.244 706.942C-15.244 657.197 -52.5525 620.65 -103.059 620.65C-153.311 620.65 -190.619 657.197 -190.619 706.942C-190.619 752.372 -159.656 786.635 -116.002 792.473C-77.6787 822.167 -52.5525 830.035 -28.9492 830.035ZM-98.9979 780.036C-127.423 780.036 -150.265 747.804 -150.265 698.821C-150.265 658.974 -131.738 633.594 -106.358 633.594C-77.9325 633.594 -55.8519 665.573 -55.8519 714.556C-55.8519 754.403 -73.3641 780.036 -98.9979 780.036Z" fill="black"/>
<path d="M-29.2982 921.562H49.6335V917.501L30.5985 906.841V843.899H44.3037L91.0028 921.562H146.077V917.501L127.804 907.349L80.8508 835.27C101.409 827.656 114.86 814.204 114.86 795.423C114.86 769.789 93.0332 754.054 57.5013 754.054H-29.2982V758.115L-7.72519 768.52V907.095L-29.2982 917.501V921.562ZM40.7505 768.013C64.1001 768.013 76.2825 779.434 76.2825 799.484C76.2825 818.519 63.0849 831.463 42.2733 831.463H30.5985V768.013H40.7505Z" fill="black"/>
<path d="M-3.41026 1078.76C28.8223 1078.76 60.801 1059.72 60.801 1026.98C60.801 1002.62 46.5882 989.928 15.8785 975.716C-8.74006 964.548 -17.623 957.442 -17.623 943.483C-17.623 929.016 -7.47105 919.372 6.48791 919.372C16.8937 919.372 24.5077 922.925 33.3907 929.778L51.1566 958.457H55.4712L52.9332 917.849C39.4819 910.489 23.2387 906.175 5.98032 906.175C-24.2218 906.175 -54.9316 930.032 -54.9316 957.442C-54.9316 979.523 -41.4802 992.72 -17.623 1003.38C14.1019 1017.59 24.5077 1022.92 24.5077 1040.18C24.5077 1057.19 11.8177 1065.81 -6.45586 1065.81C-17.623 1065.81 -28.7902 1061.5 -37.6732 1053.89L-55.693 1022.92H-60.2614L-57.7234 1065.81C-41.734 1073.94 -25.7446 1078.76 -3.41026 1078.76Z" fill="black"/>
<path d="M90.8439 1045.98H159.941V1042.93L139.764 1035.13V930.818H166.984L182.212 962.226H185.257V920.349H65.5274V962.226H68.573L83.801 930.818H111.021V1035.13L90.8439 1042.93V1045.98Z" fill="black"/>
<path d="M179.507 1168.95C221.979 1168.95 250.71 1149.46 250.71 1095.5V1015.55L272.196 1005.56V1001.56H209.737V1005.56L233.222 1015.3V1104.49C233.222 1137.72 213.735 1150.21 191.749 1150.21C165.267 1150.21 144.031 1136.97 144.031 1095.75V1015.8L165.517 1005.56V1001.56H84.8203V1005.56L106.306 1015.8V1095.5C106.306 1149.46 136.036 1168.95 179.507 1168.95Z" fill="black"/>
<path d="M231.248 1003.23H237.295L265.656 938.898L271.703 935.562V933.894H249.39V935.562L257.836 939.524L239.38 982.274H238.755L220.195 939.524L228.641 935.562V933.894H196.109V935.562L203.512 939.628L231.248 1003.23Z" fill="black"/>
<path d="M316.293 1046.93H327.334L362.548 962.416H363.69L397.763 1046.93H408.803L445.922 930.057L458.865 923.394V920.349H415.846V923.394L432.216 930.628L410.136 1003.91H408.994L376.254 919.397H365.023L331.902 1003.91H330.95L308.87 930.628L325.05 923.394V920.349H265.089V923.394L279.746 931.199L316.293 1046.93Z" fill="black"/>
<path d="M397.101 1119.67H482.758V1113.96L454.206 1100.04L454.92 1098.61L512.381 1026.87L563.062 1098.97V1100.39L537.365 1113.96V1119.67H656.928V1113.96L631.231 1099.32L552.355 990.468L625.164 902.312L649.076 889.82V884.11H565.203V889.82L593.042 904.096V905.524L539.506 972.622L490.967 905.524V903.74L519.163 889.82V884.11H401.384V889.82L424.939 903.383L499.533 1008.67L425.296 1099.68L397.101 1113.96V1119.67Z" fill="black"/>
<path d="M252.094 1187.42H324.07V1183.93L304.658 1174.98V1120.02L350.679 1054.15L365.293 1046.95V1043.47H315.564V1046.95L332.358 1055.46V1056.33L298.333 1107.37L260.382 1055.9V1055.02L276.74 1046.95V1043.47H209.345V1046.95L223.958 1055.24L271.724 1120.24V1174.98L252.094 1183.93V1187.42Z" fill="black"/>
<path d="M361.953 1147.99H446.5V1114.04H443.962L431.431 1139.27H390.506L444.755 1048.37V1043.3H363.857V1075.66H366.395L378.133 1052.02H416.044L361.953 1142.91V1147.99Z" fill="black"/>
<path d="M503.558 651.384H564.024V648.37L548.013 640.647V537.798L564.024 530.075V527.061H503.558V530.075L519.569 537.798V640.647L503.558 648.37V651.384Z" fill="black"/>
<defs>
<filter id="filter0_d_117_11" x="-511.201" y="205.149" width="1319.04" height="1112.74" filterUnits="userSpaceOnUse" color-interpolation-filters="sRGB">
<feFlood flood-opacity="0" result="BackgroundImageFix"/>
<feColorMatrix in="SourceAlpha" type="matrix" values="0 0 0 0 0 0 0 0 0 0 0 0 0 0 0 0 0 0 127 0" result="hardAlpha"/>
<feOffset dx="10.4121" dy="6.50756"/>
<feGaussianBlur stdDeviation="6.18218"/>
<feComposite in2="hardAlpha" operator="out"/>
<feColorMatrix type="matrix" values="0 0 0 0 0 0 0 0 0 0 0 0 0 0 0 0 0 0 0.25 0"/>
<feBlend mode="normal" in2="BackgroundImageFix" result="effect1_dropShadow_117_11"/>
<feBlend mode="normal" in="SourceGraphic" in2="effect1_dropShadow_117_11" result="shape"/>
</filter>
</defs>
</svg>
