<svg width="371" height="305" viewBox="0 0 371 305" fill="none" xmlns="http://www.w3.org/2000/svg">
<g filter="url(#filter0_d_105_734)">
<rect x="250.149" y="118.5" width="81.0826" height="38.0218" rx="6.87141" transform="rotate(-10.5096 250.149 118.5)" fill="#FFCFCF"/>
<rect x="252.48" y="120.101" width="77.0826" height="34.0218" rx="4.87141" transform="rotate(-10.5096 252.48 120.101)" stroke="black" stroke-width="4"/>
</g>
<g filter="url(#filter1_d_105_734)">
<circle cx="144.681" cy="157.401" r="124.123" transform="rotate(-10.5096 144.681 157.401)" fill="url(#paint0_linear_105_734)"/>
<circle cx="144.681" cy="157.401" r="122.123" transform="rotate(-10.5096 144.681 157.401)" stroke="black" stroke-width="4"/>
</g>
<circle cx="144.681" cy="157.401" r="98.2425" transform="rotate(-10.5096 144.681 157.401)" fill="#473D0A" stroke="black" stroke-width="4"/>
<path fill-rule="evenodd" clip-rule="evenodd" d="M48.2422 147.339C58.7915 146.344 80.5529 140.729 87.4223 123.645C93.8035 107.774 102.5 100.861 121 101.861C127.242 102.199 132.232 104.134 137.661 106.238C143.543 108.519 149.94 110.998 159 111.861C178.325 113.702 183.253 101.57 186.102 94.5572C186.349 93.9493 186.581 93.3799 186.805 92.8613C189.12 87.496 188.036 75.9282 187.296 70.1536C169.312 61.5396 148.533 58.3426 127.427 62.2582C84.1447 70.2875 52.8763 105.742 48.2422 147.339Z" fill="#A59E7E"/>
<circle opacity="0.4" cx="144.776" cy="157.803" r="93.139" transform="rotate(-10.5096 144.776 157.803)" stroke="black" stroke-width="10"/>
<defs>
<filter id="filter0_d_105_734" x="248.286" y="89.847" width="122.384" height="87.8997" filterUnits="userSpaceOnUse" color-interpolation-filters="sRGB">
<feFlood flood-opacity="0" result="BackgroundImageFix"/>
<feColorMatrix in="SourceAlpha" type="matrix" values="0 0 0 0 0 0 0 0 0 0 0 0 0 0 0 0 0 0 127 0" result="hardAlpha"/>
<feOffset dx="16" dy="4"/>
<feGaussianBlur stdDeviation="9.5"/>
<feComposite in2="hardAlpha" operator="out"/>
<feColorMatrix type="matrix" values="0 0 0 0 0 0 0 0 0 0 0 0 0 0 0 0 0 0 0.25 0"/>
<feBlend mode="normal" in2="BackgroundImageFix" result="effect1_dropShadow_105_734"/>
<feBlend mode="normal" in="SourceGraphic" in2="effect1_dropShadow_105_734" result="shape"/>
</filter>
<filter id="filter1_d_105_734" x="17.5356" y="18.2556" width="286.291" height="286.29" filterUnits="userSpaceOnUse" color-interpolation-filters="sRGB">
<feFlood flood-opacity="0" result="BackgroundImageFix"/>
<feColorMatrix in="SourceAlpha" type="matrix" values="0 0 0 0 0 0 0 0 0 0 0 0 0 0 0 0 0 0 127 0" result="hardAlpha"/>
<feOffset dx="16" dy="4"/>
<feGaussianBlur stdDeviation="9.5"/>
<feComposite in2="hardAlpha" operator="out"/>
<feColorMatrix type="matrix" values="0 0 0 0 0 0 0 0 0 0 0 0 0 0 0 0 0 0 0.25 0"/>
<feBlend mode="normal" in2="BackgroundImageFix" result="effect1_dropShadow_105_734"/>
<feBlend mode="normal" in="SourceGraphic" in2="effect1_dropShadow_105_734" result="shape"/>
</filter>
<linearGradient id="paint0_linear_105_734" x1="21.4527" y1="157.754" x2="268.037" y2="160.782" gradientUnits="userSpaceOnUse">
<stop stop-color="#FFF7F7"/>
<stop offset="1" stop-color="#FFCCCC"/>
</linearGradient>
</defs>
</svg>
