<svg width="544" height="576" viewBox="0 0 544 576" fill="none" xmlns="http://www.w3.org/2000/svg">
<g filter="url(#filter0_d_128_43)">
<mask id="path-1-inside-1_128_43" fill="white">
<rect x="36.1763" y="104.796" width="401" height="438" rx="2"/>
</mask>
<rect x="36.1763" y="104.796" width="401" height="438" rx="2" fill="url(#paint0_linear_128_43)" stroke="black" stroke-width="6" mask="url(#path-1-inside-1_128_43)"/>
<rect x="63.1763" y="130.796" width="348" height="317" rx="2" fill="#CAF5FF"/>
<path d="M309.229 133.345C309.229 146.411 311.803 159.35 316.803 171.422C321.803 183.494 329.132 194.462 338.372 203.702C347.611 212.941 358.58 220.27 370.652 225.271C382.724 230.271 395.662 232.845 408.729 232.845L408.729 133.345L309.229 133.345Z" fill="#FFFDCA"/>
<line x1="170.059" y1="185.813" x2="157.97" y2="193.306" stroke="white" stroke-width="3.05419" stroke-linecap="round"/>
<line x1="141.886" y1="183.31" x2="129.797" y2="190.803" stroke="white" stroke-width="3.05419" stroke-linecap="round"/>
<line x1="154.035" y1="201.569" x2="141.946" y2="209.062" stroke="white" stroke-width="3.05419" stroke-linecap="round"/>
<line x1="195.828" y1="189.807" x2="183.739" y2="197.3" stroke="white" stroke-width="3.05419" stroke-linecap="round"/>
<line x1="182.437" y1="203.098" x2="170.348" y2="210.592" stroke="white" stroke-width="3.05419" stroke-linecap="round"/>
<line x1="172.94" y1="217.304" x2="160.851" y2="224.798" stroke="white" stroke-width="3.05419" stroke-linecap="round"/>
<line x1="1.52709" y1="-1.52709" x2="15.75" y2="-1.52709" transform="matrix(0.526839 0.849965 0.849965 -0.526839 151.082 179.141)" stroke="white" stroke-width="3.05419" stroke-linecap="round"/>
<line x1="1.52709" y1="-1.52709" x2="15.75" y2="-1.52709" transform="matrix(0.526839 0.849965 0.849965 -0.526839 122.908 176.637)" stroke="white" stroke-width="3.05419" stroke-linecap="round"/>
<line x1="1.52709" y1="-1.52709" x2="15.75" y2="-1.52709" transform="matrix(0.526839 0.849965 0.849965 -0.526839 135.058 194.896)" stroke="white" stroke-width="3.05419" stroke-linecap="round"/>
<line x1="1.52709" y1="-1.52709" x2="15.75" y2="-1.52709" transform="matrix(0.526839 0.849965 0.849965 -0.526839 176.851 183.134)" stroke="white" stroke-width="3.05419" stroke-linecap="round"/>
<line x1="1.52709" y1="-1.52709" x2="15.75" y2="-1.52709" transform="matrix(0.526839 0.849965 0.849965 -0.526839 163.459 196.426)" stroke="white" stroke-width="3.05419" stroke-linecap="round"/>
<line x1="1.52709" y1="-1.52709" x2="15.75" y2="-1.52709" transform="matrix(0.526839 0.849965 0.849965 -0.526839 153.962 210.632)" stroke="white" stroke-width="3.05419" stroke-linecap="round"/>
<rect x="64.7642" y="358.796" width="344.607" height="87.5956" fill="#E5FFCA"/>
<path d="M311.666 360.248C326.351 360.248 336.279 349.079 336.279 335.635C336.279 322.088 326.351 311.022 311.666 311.022C296.981 311.022 286.95 322.088 286.95 335.635C286.95 349.079 296.981 360.248 311.666 360.248ZM312.804 355.181C305.151 355.181 301.842 344.736 301.842 333.464C301.842 324.156 304.531 315.986 310.736 315.986C318.285 315.986 321.387 326.431 321.387 337.704C321.387 346.907 318.802 355.181 312.804 355.181Z" fill="black"/>
<line x1="297.979" y1="132.87" x2="319.883" y2="446.105" stroke="#FF0000" stroke-width="1.5"/>
<line x1="65.0107" y1="352.907" x2="409.17" y2="328.841" stroke="#FF0000" stroke-width="1.5"/>
<mask id="path-20-inside-2_128_43" fill="white">
<rect x="63.1763" y="130.796" width="348" height="317" rx="2"/>
</mask>
<rect x="63.1763" y="130.796" width="348" height="317" rx="2" stroke="black" stroke-width="6" mask="url(#path-20-inside-2_128_43)"/>
<path d="M76.3486 358.969L133.537 358.969L133.537 333.736L131.882 333.736L123.506 353.281L100.755 353.281L100.755 296.61L110.579 292.37L110.579 290.715L76.3486 290.715L76.3486 292.37L85.1389 296.61L85.1389 353.074L76.3486 357.314L76.3486 358.969ZM165.845 360.003C175.463 360.003 182.909 354.626 186.322 347.283L186.322 345.628L186.011 345.628C181.358 348.007 176.911 348.834 172.981 348.834C161.502 348.834 156.848 341.906 156.848 333.219L156.848 332.702L185.805 332.702L186.218 332.185C186.011 318.534 179.6 310.778 168.431 310.778C154.263 310.778 142.887 321.843 142.887 337.562C142.887 351.109 151.678 360.003 165.845 360.003ZM166.052 315.431C170.706 315.431 173.602 318.637 174.636 328.048L157.159 328.048C158.089 319.982 161.192 315.431 166.052 315.431ZM193.467 358.969L219.838 358.969L219.838 357.314L214.874 354.005L214.874 322.981C216.942 321.326 220.148 320.292 222.63 320.292C226.973 320.292 229.869 322.877 229.869 327.738L229.869 354.005L224.802 357.314L224.802 358.969L249.621 358.969L249.621 357.314L244.451 354.005L244.451 323.498C246.519 321.429 249.621 320.292 252.62 320.292C256.964 320.292 259.859 322.877 259.859 327.738L259.859 354.005L254.585 357.314L254.585 358.969L281.266 358.969L281.266 357.314L274.441 354.005L274.441 323.498C274.441 315.121 268.65 310.778 260.48 310.778C253.758 310.778 249.621 313.983 244.347 319.464L243.933 319.464C242.279 313.673 237.211 310.778 230.489 310.778C224.181 310.778 220.148 313.57 215.287 318.43L214.874 318.43L213.84 310.778L212.599 310.778L193.777 317.086L193.777 318.327L200.396 322.567L200.396 354.005L193.467 357.314L193.467 358.969ZM338.389 358.969L365.07 358.969L365.07 357.314L359.796 354.005L359.796 322.981C361.865 321.326 365.277 320.292 367.966 320.292C372.309 320.292 375.412 322.877 375.412 327.738L375.412 354.005L370.241 357.314L370.241 358.969L396.922 358.969L396.922 357.314L389.993 354.005L389.993 323.498C389.993 315.121 384.099 310.778 375.722 310.778C369.31 310.778 365.174 313.57 360.21 318.43L359.796 318.43L358.762 310.778L357.521 310.778L338.7 317.086L338.7 318.327L345.318 322.567L345.318 354.005L338.389 357.314L338.389 358.969Z" fill="black"/>
</g>
<defs>
<filter id="filter0_d_128_43" x="34.224" y="98.9396" width="425.729" height="462.729" filterUnits="userSpaceOnUse" color-interpolation-filters="sRGB">
<feFlood flood-opacity="0" result="BackgroundImageFix"/>
<feColorMatrix in="SourceAlpha" type="matrix" values="0 0 0 0 0 0 0 0 0 0 0 0 0 0 0 0 0 0 127 0" result="hardAlpha"/>
<feOffset dx="10.4121" dy="6.50756"/>
<feGaussianBlur stdDeviation="6.18218"/>
<feComposite in2="hardAlpha" operator="out"/>
<feColorMatrix type="matrix" values="0 0 0 0 0 0 0 0 0 0 0 0 0 0 0 0 0 0 0.25 0"/>
<feBlend mode="normal" in2="BackgroundImageFix" result="effect1_dropShadow_128_43"/>
<feBlend mode="normal" in="SourceGraphic" in2="effect1_dropShadow_128_43" result="shape"/>
</filter>
<linearGradient id="paint0_linear_128_43" x1="-15.3096" y1="-0.0973982" x2="456.697" y2="599.939" gradientUnits="userSpaceOnUse">
<stop stop-color="#F9F9F9"/>
<stop offset="1" stop-color="white"/>
</linearGradient>
</defs>
</svg>
