<svg width="524" height="683" viewBox="0 0 524 683" fill="none" xmlns="http://www.w3.org/2000/svg">
<g filter="url(#filter0_d_105_772)">
<rect x="470.511" y="37.0096" width="607.896" height="417.47" rx="28.6921" transform="rotate(89.9436 470.511 37.0096)" fill="url(#paint0_linear_105_772)"/>
<rect x="469.211" y="38.3124" width="605.293" height="414.867" rx="27.3905" transform="rotate(89.9436 469.211 38.3124)" stroke="black" stroke-width="2.60302"/>
</g>
<circle cx="261.915" cy="542.897" r="75.8084" transform="rotate(89.9436 261.915 542.897)" fill="#EAFFE8" stroke="black" stroke-width="2.60302"/>
<circle cx="262.632" cy="542.896" r="48.5509" transform="rotate(89.9436 262.632 542.896)" fill="#BDFFE4" stroke="black" stroke-width="2.60302"/>
<rect x="414.035" y="96.0163" width="338.192" height="304.402" rx="24.7287" transform="rotate(89.9436 414.035 96.0163)" fill="white" stroke="black" stroke-width="2.60302"/>
<path d="M337.783 197.433L336.204 199.016L334.621 197.173L333.303 196.648L331.722 196.386L330.141 196.915L329.089 197.97L328.3 199.816L328.566 201.923L330.678 205.346L336.218 210.609L339.376 207.971L342.534 204.278L343.849 201.905L344.11 200.061L343.317 197.954L341.998 196.901L340.417 196.64L337.783 197.433Z" fill="#D64A4A"/>
<path d="M336.219 211.1C336.102 211.099 335.989 211.061 335.897 210.989C332.964 208.716 330.944 206.758 329.529 204.826C327.724 202.356 327.31 200.075 328.299 198.045C329.003 196.595 331.031 195.407 333.403 196.095C334.534 196.42 335.521 197.119 336.203 198.078C336.883 197.117 337.869 196.416 338.999 196.088C341.365 195.405 343.4 196.578 344.108 198.027C345.101 200.054 344.693 202.337 342.893 204.81C341.483 206.746 339.467 208.709 336.54 210.989C336.448 211.06 336.335 211.099 336.219 211.1V211.1ZM332.055 196.955C331.49 196.934 330.931 197.067 330.436 197.339C329.942 197.612 329.531 198.014 329.248 198.502C328.433 200.179 328.804 202.044 330.382 204.198C332.059 206.356 334.022 208.275 336.217 209.903C338.408 208.272 340.366 206.349 342.039 204.189C343.617 202.027 343.979 200.161 343.16 198.491C342.632 197.438 341.05 196.602 339.29 197.1C338.726 197.267 338.203 197.551 337.755 197.932C337.307 198.314 336.944 198.785 336.69 199.316C336.65 199.413 336.583 199.495 336.496 199.554C336.409 199.612 336.307 199.643 336.203 199.643C336.098 199.643 335.996 199.612 335.909 199.554C335.822 199.496 335.754 199.414 335.715 199.317C335.461 198.786 335.097 198.314 334.648 197.933C334.199 197.552 333.674 197.271 333.109 197.107C332.766 197.008 332.411 196.957 332.055 196.955V196.955Z" fill="#D64A4A"/>
<path d="M147.558 138.384C148.746 138.382 149.88 137.62 149.879 136.365C149.877 135.11 149.022 134.804 148.274 134.497C147.179 134.071 146.912 133.858 146.911 133.391C146.91 132.91 147.271 132.629 147.805 132.628C148.312 132.628 148.62 132.868 148.967 133.388L149.382 134.015L149.582 134.015L149.58 132.426C149.033 132.146 148.445 132.027 147.844 132.028C146.522 132.029 145.549 132.952 145.55 134.1C145.551 134.914 146.005 135.435 147.021 135.847C148.156 136.313 148.544 136.473 148.544 137.034C148.545 137.515 148.185 137.796 147.504 137.796C146.916 137.797 146.449 137.53 146.128 137.05L145.659 136.356L145.459 136.357L145.461 137.906C146.089 138.212 146.677 138.385 147.558 138.384ZM151.013 141.317L154.819 141.313L154.818 141.099L153.776 140.673L153.774 138.256C154.121 138.336 154.495 138.376 154.909 138.375C156.564 138.373 158.005 137.076 158.003 134.94C158 133.124 156.958 132.017 155.769 132.018C155.062 132.019 154.474 132.26 153.821 132.835L153.741 132.835L153.633 132.021L153.473 132.021L151.043 132.838L151.044 132.999L151.899 133.625L151.907 140.675L151.013 141.104L151.013 141.317ZM154.662 133.115C155.41 133.114 156.132 133.807 156.134 135.329C156.136 137.185 155.469 137.68 154.828 137.681C154.387 137.681 154.027 137.535 153.772 137.242L153.768 133.383C154.088 133.209 154.342 133.115 154.662 133.115ZM162.113 138.367C163.355 138.365 164.315 137.67 164.755 136.721L164.755 136.508L164.715 136.508C164.114 136.816 163.54 136.923 163.033 136.924C161.551 136.925 160.949 136.031 160.947 134.91L160.947 134.843L164.686 134.839L164.739 134.772C164.711 133.009 163.882 132.009 162.439 132.011C160.61 132.013 159.143 133.443 159.145 135.473C159.147 137.222 160.284 138.369 162.113 138.367ZM162.133 132.612C162.734 132.611 163.108 133.025 163.243 134.239L160.987 134.242C161.106 133.2 161.505 132.612 162.133 132.612ZM168.814 138.359C170.042 138.357 170.976 137.649 171.415 136.713L171.415 136.5L171.375 136.5C170.761 136.808 170.201 136.915 169.693 136.916C168.291 136.917 167.729 135.983 167.728 134.822C167.726 133.473 168.153 132.591 168.967 132.59C169.461 132.59 169.715 132.843 170.023 133.257L170.491 133.911L170.584 133.91L171.211 133.376C171.345 133.255 171.385 133.188 171.384 133.055C171.384 132.948 171.317 132.828 171.17 132.655C170.823 132.254 170.101 132.002 169.273 132.003C167.257 132.005 165.924 133.435 165.926 135.465C165.928 137.214 167.091 138.361 168.814 138.359ZM174.841 138.352C175.668 138.351 176.416 137.936 176.709 137.508L176.709 137.281L176.669 137.255C176.428 137.309 176.175 137.362 175.841 137.363C175.307 137.363 174.853 137.15 174.852 136.696L174.847 132.73L176.703 132.728L176.703 132.127L174.847 132.13L174.845 130.661L174.591 130.661L173.244 132.131L172.016 132.547L172.017 132.734L172.978 132.733L172.983 137.032C172.984 137.873 173.759 138.353 174.841 138.352ZM177.52 138.215L181.366 138.211L181.365 137.997L180.283 137.571L180.279 133.846C180.532 133.512 180.866 133.324 181.253 133.324C181.533 133.323 181.694 133.35 181.961 133.443L182.308 133.563L182.402 133.563L182.721 132.694C182.761 132.614 182.774 132.534 182.774 132.467C182.774 132.307 182.627 132.174 182.373 132.094C182.226 132.041 182.026 131.988 181.879 131.988C181.358 131.988 180.985 132.162 180.331 133.191L180.265 133.191L180.143 131.99L179.983 131.99L177.554 132.807L177.554 132.968L178.396 133.594L178.4 137.573L177.52 138.002L177.52 138.215ZM184.807 138.327C185.582 138.326 186.209 137.938 186.649 137.43L186.729 137.43C186.97 138.004 187.424 138.337 188.185 138.336C188.933 138.335 189.4 137.988 189.6 137.654L189.6 137.467L189.56 137.427L189.172 137.427C188.865 137.427 188.665 137.348 188.531 137.214L188.527 133.689C188.526 132.487 187.43 131.981 186.122 131.983C185.467 131.984 184.947 132.158 184.306 132.559C183.786 132.88 183.453 133.268 183.453 133.655C183.453 133.962 183.547 134.069 183.814 134.069L184.695 134.067L184.749 134.014L184.748 133.4C184.747 132.906 184.974 132.652 185.548 132.651C186.189 132.65 186.644 133.09 186.644 133.771L186.645 134.599L185.391 134.908C183.709 135.337 183.242 135.832 183.243 136.793C183.217 137.781 183.939 138.328 184.807 138.327ZM185.005 136.417C185.004 135.763 185.311 135.415 186.646 135.133L186.648 137.096C186.381 137.203 186.154 137.257 185.887 137.257C185.34 137.258 185.006 136.978 185.005 136.417ZM190.024 138.201L193.589 138.196L193.589 137.983L192.8 137.556L192.789 128.183L192.629 128.183L190.053 128.92L190.053 129.081L190.908 129.707L190.918 137.559L190.024 137.987L190.024 138.201Z" fill="black"/>
<path d="M191.256 173.885C190.068 173.887 188.934 174.649 188.935 175.904C188.937 177.159 189.792 177.466 190.54 177.772C191.635 178.198 191.902 178.411 191.903 178.878C191.903 179.359 191.543 179.64 191.009 179.641C190.502 179.641 190.194 179.401 189.847 178.881L189.432 178.254L189.232 178.254L189.234 179.843C189.781 180.123 190.369 180.242 190.97 180.242C192.292 180.24 193.265 179.317 193.264 178.169C193.263 177.355 192.809 176.834 191.793 176.422C190.658 175.956 190.27 175.796 190.27 175.235C190.269 174.754 190.629 174.474 191.31 174.473C191.898 174.472 192.365 174.739 192.686 175.219L193.155 175.913L193.355 175.912L193.353 174.364C192.725 174.057 192.137 173.884 191.256 173.885ZM187.801 170.952L183.995 170.956L183.995 171.17L185.037 171.596L185.04 174.013C184.693 173.933 184.319 173.893 183.905 173.894C182.249 173.896 180.809 175.193 180.811 177.329C180.814 179.145 181.856 180.252 183.045 180.251C183.752 180.25 184.34 180.009 184.993 179.434L185.073 179.434L185.181 180.248L185.341 180.248L187.771 179.431L187.77 179.271L186.915 178.644L186.907 171.594L187.801 171.165L187.801 170.952ZM184.152 179.155C183.404 179.155 182.682 178.462 182.68 176.94C182.678 175.084 183.345 174.589 183.986 174.588C184.427 174.588 184.787 174.734 185.042 175.028L185.046 178.886C184.726 179.06 184.472 179.154 184.152 179.155ZM176.701 173.902C175.459 173.904 174.499 174.599 174.059 175.548L174.059 175.761L174.099 175.761C174.7 175.454 175.274 175.346 175.781 175.345C177.263 175.344 177.865 176.238 177.867 177.359L177.867 177.426L174.128 177.43L174.075 177.497C174.103 179.26 174.932 180.26 176.375 180.259C178.204 180.256 179.671 178.826 179.669 176.796C179.667 175.047 178.53 173.9 176.701 173.902ZM176.681 179.657C176.08 179.658 175.706 179.245 175.571 178.03L177.827 178.027C177.708 179.069 177.309 179.657 176.681 179.657ZM170 173.91C168.772 173.912 167.838 174.62 167.399 175.556L167.399 175.769L167.439 175.769C168.053 175.461 168.613 175.354 169.121 175.353C170.523 175.352 171.085 176.286 171.086 177.447C171.088 178.796 170.661 179.678 169.847 179.679C169.353 179.679 169.099 179.426 168.791 179.012L168.323 178.359L168.23 178.359L167.603 178.894C167.469 179.014 167.429 179.081 167.43 179.214C167.43 179.321 167.497 179.441 167.644 179.615C167.991 180.015 168.713 180.268 169.54 180.267C171.557 180.264 172.89 178.834 172.888 176.804C172.886 175.055 171.723 173.908 170 173.91ZM163.973 173.917C163.145 173.918 162.398 174.333 162.105 174.761L162.105 174.988L162.145 175.014C162.386 174.961 162.639 174.907 162.973 174.906C163.507 174.906 163.961 175.119 163.962 175.573L163.967 179.539L162.111 179.541L162.111 180.142L163.967 180.14L163.969 181.608L164.223 181.608L165.57 180.138L166.798 179.722L166.797 179.535L165.836 179.537L165.831 175.237C165.83 174.396 165.055 173.916 163.973 173.917ZM161.294 174.054L157.448 174.058L157.449 174.272L158.531 174.698L158.535 178.423C158.282 178.758 157.948 178.945 157.561 178.945C157.281 178.946 157.12 178.919 156.853 178.826L156.506 178.706L156.412 178.706L156.093 179.575C156.053 179.655 156.04 179.735 156.04 179.802C156.04 179.962 156.187 180.095 156.441 180.175C156.588 180.228 156.788 180.281 156.935 180.281C157.456 180.281 157.829 180.107 158.482 179.078L158.549 179.078L158.671 180.279L158.831 180.279L161.26 179.462L161.26 179.302L160.418 178.675L160.413 174.696L161.294 174.268L161.294 174.054ZM154.007 173.942C153.232 173.943 152.605 174.331 152.165 174.839L152.085 174.839C151.844 174.265 151.39 173.932 150.629 173.933C149.881 173.934 149.414 174.281 149.214 174.615L149.214 174.802L149.254 174.842L149.642 174.842C149.949 174.842 150.149 174.921 150.283 175.055L150.287 178.58C150.288 179.782 151.384 180.288 152.692 180.286C153.347 180.286 153.867 180.111 154.508 179.71C155.028 179.389 155.361 179.001 155.361 178.614C155.361 178.307 155.267 178.2 155 178.201L154.119 178.202L154.065 178.255L154.066 178.869C154.067 179.363 153.84 179.617 153.266 179.618C152.625 179.619 152.17 179.179 152.17 178.498L152.169 177.67L153.423 177.361C155.105 176.932 155.572 176.437 155.571 175.476C155.596 174.488 154.875 173.941 154.007 173.942ZM153.809 175.852C153.81 176.506 153.503 176.854 152.168 177.136L152.166 175.173C152.433 175.066 152.66 175.012 152.927 175.012C153.474 175.011 153.808 175.291 153.809 175.852ZM148.79 174.068L145.225 174.073L145.225 174.286L146.014 174.713L146.025 184.086L146.185 184.086L148.761 183.349L148.761 183.188L147.905 182.562L147.896 174.71L148.79 174.282L148.79 174.068Z" fill="black"/>
<path d="M151.211 166.97C151.21 165.782 150.447 164.648 149.192 164.649C147.937 164.651 147.631 165.506 147.325 166.254C146.899 167.349 146.686 167.617 146.218 167.617C145.737 167.618 145.457 167.258 145.456 166.723C145.455 166.216 145.695 165.909 146.216 165.561L146.843 165.146L146.843 164.946L145.254 164.948C144.974 165.496 144.854 166.083 144.855 166.684C144.857 168.006 145.779 168.98 146.927 168.978C147.742 168.977 148.262 168.523 148.675 167.507C149.141 166.372 149.301 165.985 149.862 165.984C150.342 165.983 150.623 166.343 150.624 167.024C150.625 167.612 150.358 168.08 149.878 168.401L149.184 168.869L149.184 169.069L150.733 169.067C151.039 168.439 151.212 167.852 151.211 166.97ZM154.145 163.515L154.14 159.709L153.927 159.71L153.501 160.752L151.084 160.755C151.164 160.407 151.203 160.033 151.203 159.619C151.201 157.964 149.904 156.523 147.767 156.526C145.951 156.528 144.844 157.571 144.846 158.759C144.847 159.467 145.088 160.054 145.663 160.707L145.663 160.788L144.848 160.895L144.849 161.056L145.666 163.485L145.826 163.485L146.453 162.629L153.503 162.621L153.931 163.515L154.145 163.515ZM145.942 159.866C145.941 159.118 146.635 158.396 148.157 158.395C150.013 158.392 150.508 159.059 150.508 159.7C150.509 160.141 150.363 160.502 150.069 160.756L146.21 160.76C146.036 160.44 145.942 160.186 145.942 159.866ZM151.194 152.415C151.193 151.173 150.497 150.213 149.549 149.773L149.335 149.774L149.335 149.814C149.643 150.414 149.751 150.988 149.751 151.496C149.753 152.978 148.859 153.58 147.737 153.581L147.671 153.581L147.666 149.842L147.599 149.789C145.837 149.818 144.836 150.647 144.838 152.089C144.84 153.918 146.271 155.385 148.3 155.383C150.049 155.381 151.196 154.244 151.194 152.415ZM145.439 152.395C145.439 151.794 145.852 151.42 147.067 151.285L147.07 153.542C146.028 153.423 145.44 153.023 145.439 152.395ZM151.186 145.715C151.185 144.486 150.476 143.552 149.541 143.113L149.327 143.113L149.327 143.153C149.635 143.767 149.743 144.328 149.743 144.835C149.745 146.237 148.811 146.799 147.649 146.8C146.301 146.802 145.419 146.376 145.418 145.561C145.417 145.067 145.671 144.813 146.084 144.506L146.738 144.037L146.738 143.944L146.203 143.317C146.083 143.184 146.016 143.144 145.882 143.144C145.776 143.144 145.656 143.211 145.482 143.358C145.082 143.706 144.829 144.427 144.83 145.255C144.832 147.271 146.263 148.605 148.292 148.602C150.041 148.6 151.188 147.437 151.186 145.715Z" fill="black"/>
<path d="M187.495 145.299C187.496 146.487 188.259 147.621 189.514 147.62C190.769 147.619 191.075 146.764 191.381 146.015C191.807 144.92 192.021 144.653 192.488 144.652C192.969 144.652 193.249 145.012 193.25 145.546C193.251 146.053 193.011 146.361 192.49 146.709L191.863 147.123L191.863 147.323L193.452 147.322C193.732 146.774 193.852 146.186 193.851 145.585C193.849 144.263 192.927 143.29 191.779 143.291C190.964 143.292 190.444 143.747 190.031 144.762C189.565 145.897 189.405 146.285 188.845 146.285C188.364 146.286 188.083 145.926 188.082 145.245C188.082 144.657 188.348 144.19 188.828 143.869L189.522 143.401L189.522 143.2L187.973 143.202C187.667 143.83 187.494 144.418 187.495 145.299ZM184.561 148.754L184.566 152.56L184.779 152.56L185.205 151.518L187.622 151.515C187.542 151.862 187.503 152.236 187.503 152.65C187.505 154.306 188.802 155.746 190.939 155.744C192.755 155.742 193.862 154.699 193.86 153.51C193.859 152.803 193.618 152.215 193.043 151.562L193.043 151.482L193.858 151.374L193.858 151.214L193.04 148.785L192.88 148.785L192.253 149.64L185.203 149.648L184.775 148.754L184.561 148.754ZM192.764 152.403C192.765 153.151 192.071 153.873 190.549 153.875C188.693 153.877 188.198 153.21 188.198 152.569C188.197 152.128 188.344 151.768 188.637 151.514L192.496 151.509C192.67 151.829 192.764 152.083 192.764 152.403ZM187.512 159.854C187.513 161.096 188.209 162.057 189.157 162.496L189.371 162.496L189.371 162.456C189.063 161.855 188.956 161.281 188.955 160.774C188.953 159.292 189.847 158.69 190.969 158.688L191.036 158.688L191.04 162.427L191.107 162.48C192.869 162.452 193.87 161.623 193.868 160.181C193.866 158.351 192.435 156.884 190.406 156.887C188.657 156.889 187.51 158.025 187.512 159.854ZM193.267 159.874C193.267 160.475 192.854 160.849 191.639 160.984L191.636 158.728C192.678 158.847 193.266 159.247 193.267 159.874ZM187.52 166.555C187.521 167.783 188.23 168.717 189.165 169.157L189.379 169.156L189.379 169.116C189.071 168.502 188.963 167.942 188.963 167.434C188.961 166.032 189.895 165.47 191.057 165.469C192.405 165.467 193.287 165.894 193.288 166.708C193.289 167.202 193.035 167.456 192.622 167.764L191.968 168.232L191.968 168.325L192.503 168.952C192.623 169.086 192.69 169.126 192.824 169.126C192.93 169.125 193.051 169.059 193.224 168.911C193.624 168.564 193.877 167.842 193.876 167.015C193.874 164.998 192.443 163.665 190.414 163.667C188.665 163.669 187.518 164.832 187.52 166.555Z" fill="black"/>
<rect x="150.705" y="137.476" width="37.3603" height="37.3603" transform="rotate(-0.067004 150.705 137.476)" fill="white"/>
<circle cx="367.564" cy="203.195" r="10.276" transform="rotate(-0.067004 367.564 203.195)" stroke="black" stroke-width="1.05395"/>
<path d="M371.045 203.454L365.432 206.704L365.425 200.218L371.045 203.454Z" stroke="black" stroke-width="0.998481"/>
<line x1="149.059" y1="401.229" x2="175.934" y2="401.197" stroke="black" stroke-width="1.58093" stroke-linecap="round"/>
<line x1="182.258" y1="401.19" x2="374.077" y2="400.965" stroke="black" stroke-width="1.58093" stroke-linecap="round"/>
<circle cx="179.096" cy="401.194" r="2.89837" transform="rotate(-0.067004 179.096 401.194)" stroke="black" stroke-width="1.05395"/>
<path d="M279.524 387.111L273.911 390.361L273.903 383.875L279.524 387.111Z" stroke="black" stroke-width="0.998481"/>
<path d="M244.106 387.153L249.726 390.389L249.718 383.903L244.106 387.153Z" stroke="black" stroke-width="0.998481"/>
<mask id="path-20-inside-1_105_772" fill="white">
<rect x="257.33" y="382.394" width="3.55015" height="8.95859" rx="0.526976" transform="rotate(-0.067004 257.33 382.394)"/>
</mask>
<rect x="257.33" y="382.394" width="3.55015" height="8.95859" rx="0.526976" transform="rotate(-0.067004 257.33 382.394)" stroke="black" stroke-width="1.99197" mask="url(#path-20-inside-1_105_772)"/>
<mask id="path-21-inside-2_105_772" fill="white">
<rect x="262.211" y="382.389" width="3.55015" height="8.95859" rx="0.526976" transform="rotate(-0.067004 262.211 382.389)"/>
</mask>
<rect x="262.211" y="382.389" width="3.55015" height="8.95859" rx="0.526976" transform="rotate(-0.067004 262.211 382.389)" stroke="black" stroke-width="1.99197" mask="url(#path-21-inside-2_105_772)"/>
<circle cx="377.559" cy="244.143" r="0.725533" transform="rotate(-0.067004 377.559 244.143)" fill="black"/>
<circle cx="377.562" cy="246.533" r="0.725533" transform="rotate(-0.067004 377.562 246.533)" fill="black"/>
<circle cx="377.565" cy="248.923" r="0.725533" transform="rotate(-0.067004 377.565 248.923)" fill="black"/>
<circle cx="377.582" cy="263.007" r="0.725533" transform="rotate(-0.067004 377.582 263.007)" fill="black"/>
<circle cx="377.585" cy="265.397" r="0.725533" transform="rotate(-0.067004 377.585 265.397)" fill="black"/>
<circle cx="377.588" cy="267.787" r="0.725533" transform="rotate(-0.067004 377.588 267.787)" fill="black"/>
<circle cx="377.605" cy="282.355" r="0.725533" transform="rotate(-0.067004 377.605 282.355)" fill="black"/>
<circle cx="377.608" cy="284.745" r="0.725533" transform="rotate(-0.067004 377.608 284.745)" fill="black"/>
<circle cx="377.611" cy="287.134" r="0.725533" transform="rotate(-0.067004 377.611 287.134)" fill="black"/>
<circle cx="377.627" cy="301.702" r="0.725533" transform="rotate(-0.067004 377.627 301.702)" fill="black"/>
<circle cx="377.63" cy="304.092" r="0.725533" transform="rotate(-0.067004 377.63 304.092)" fill="black"/>
<circle cx="377.633" cy="306.482" r="0.725533" transform="rotate(-0.067004 377.633 306.482)" fill="black"/>
<circle cx="377.65" cy="321.05" r="0.725533" transform="rotate(-0.067004 377.65 321.05)" fill="black"/>
<circle cx="377.653" cy="323.44" r="0.725533" transform="rotate(-0.067004 377.653 323.44)" fill="black"/>
<circle cx="377.656" cy="325.83" r="0.725533" transform="rotate(-0.067004 377.656 325.83)" fill="black"/>
<circle cx="377.673" cy="340.397" r="0.725533" transform="rotate(-0.067004 377.673 340.397)" fill="black"/>
<circle cx="377.676" cy="342.787" r="0.725533" transform="rotate(-0.067004 377.676 342.787)" fill="black"/>
<circle cx="377.679" cy="345.177" r="0.725533" transform="rotate(-0.067004 377.679 345.177)" fill="black"/>
<circle cx="377.697" cy="361.326" r="0.725533" transform="rotate(-0.067004 377.697 361.326)" fill="black"/>
<circle cx="377.7" cy="363.716" r="0.725533" transform="rotate(-0.067004 377.7 363.716)" fill="black"/>
<circle cx="377.702" cy="366.106" r="0.725533" transform="rotate(-0.067004 377.702 366.106)" fill="black"/>
<defs>
<filter id="filter0_d_105_772" x="51.1176" y="31.181" width="442.74" height="632.979" filterUnits="userSpaceOnUse" color-interpolation-filters="sRGB">
<feFlood flood-opacity="0" result="BackgroundImageFix"/>
<feColorMatrix in="SourceAlpha" type="matrix" values="0 0 0 0 0 0 0 0 0 0 0 0 0 0 0 0 0 0 127 0" result="hardAlpha"/>
<feOffset dx="10.4121" dy="6.50756"/>
<feGaussianBlur stdDeviation="6.18218"/>
<feComposite in2="hardAlpha" operator="out"/>
<feColorMatrix type="matrix" values="0 0 0 0 0 0 0 0 0 0 0 0 0 0 0 0 0 0 0.25 0"/>
<feBlend mode="normal" in2="BackgroundImageFix" result="effect1_dropShadow_105_772"/>
<feBlend mode="normal" in="SourceGraphic" in2="effect1_dropShadow_105_772" result="shape"/>
</filter>
<linearGradient id="paint0_linear_105_772" x1="472.064" y1="266.996" x2="1086.46" y2="267.392" gradientUnits="userSpaceOnUse">
<stop stop-color="#EDFFF8"/>
<stop offset="1" stop-color="#B1FFDE"/>
</linearGradient>
</defs>
</svg>
