<svg width="915" height="1354" viewBox="0 0 915 1354" fill="none" xmlns="http://www.w3.org/2000/svg">
<g filter="url(#filter0_d_116_999)">
<rect x="2" y="6" width="890" height="1328.9" rx="33.8661" fill="url(#paint0_linear_116_999)"/>
<rect x="4.70928" y="8.70928" width="884.581" height="1323.49" rx="31.1568" stroke="black" stroke-width="5.41857"/>
</g>
<rect x="57.5403" y="152.302" width="780.274" height="1021.07" fill="white" stroke="black" stroke-width="5.41857"/>
<circle cx="447.677" cy="75.0869" r="10.8371" fill="black"/>
<circle cx="449.743" cy="1254.46" r="38.6073" fill="white" stroke="black" stroke-width="5.41857"/>
<rect x="101.964" y="235.576" width="691.427" height="279.008" rx="25.0145" fill="#FFE0E7" stroke="black" stroke-width="1.2828"/>
<path d="M101.964 260.59C101.964 246.775 113.163 235.576 126.978 235.576H768.376C782.191 235.576 793.391 246.775 793.391 260.59V297.194H101.964V260.59Z" fill="#F6D2B7" stroke="black" stroke-width="1.2828"/>
<rect x="101.964" y="556.275" width="691.427" height="577.9" rx="25.0145" fill="#F6D2B7" stroke="black" stroke-width="1.2828"/>
<line x1="101.963" y1="297.15" x2="794.032" y2="297.15" stroke="black" stroke-width="1.2828"/>
<line x1="101.963" y1="617.849" x2="794.032" y2="617.849" stroke="black" stroke-width="1.2828"/>
<line x1="448.319" y1="296.509" x2="448.319" y2="515.226" stroke="black" stroke-width="1.2828"/>
<path d="M334.15 271.494L338.593 266.684H329.706L334.15 271.494Z" fill="black"/>
<path d="M334.15 602.456L338.593 597.645H329.706L334.15 602.456Z" fill="#6B6B6B"/>
<path d="M718.347 271.494L722.791 266.684H713.904L718.347 271.494Z" fill="black"/>
<path d="M718.347 592.194L722.791 587.383H713.904L718.347 592.194Z" fill="black"/>
<path d="M459.49 267.966C459.49 274.861 454.445 279.458 448.221 279.458C443.162 279.458 439.08 276.775 437.656 272.563M436.506 267.966C436.506 261.071 441.551 256.475 447.775 256.475C452.835 256.475 456.916 259.158 458.341 263.37" stroke="black" stroke-width="2.29834" stroke-linecap="round" stroke-linejoin="round"/>
<path d="M442.252 273.712L437.656 272.563L436.506 277.16M453.744 262.22L458.341 263.37L459.49 258.773" stroke="black" stroke-width="2.29834" stroke-linecap="round" stroke-linejoin="round"/>
<path d="M459.49 588.666C459.49 595.561 454.445 600.158 448.221 600.158C443.162 600.158 439.08 597.474 437.656 593.262M436.506 588.666C436.506 581.771 441.551 577.174 447.775 577.174C452.835 577.174 456.916 579.857 458.341 584.069" stroke="black" stroke-width="2.29834" stroke-linecap="round" stroke-linejoin="round"/>
<path d="M442.252 594.411L437.656 593.262L436.506 597.859M453.744 582.92L458.341 584.069L459.49 579.472" stroke="black" stroke-width="2.29834" stroke-linecap="round" stroke-linejoin="round"/>
<path d="M414.541 334.614L420 329.154L425.46 334.614L426.538 333.537L421.078 328.077L426.538 322.617L425.46 321.539L420 326.999L414.541 321.539L413.463 322.617L418.923 328.077L413.463 333.537L414.541 334.614Z" fill="black"/>
<path d="M414.541 655.313L420 649.853L425.46 655.313L426.538 654.236L421.078 648.776L426.538 643.316L425.46 642.238L420 647.698L414.541 642.238L413.463 643.316L418.923 648.776L413.463 654.236L414.541 655.313Z" fill="black"/>
<rect x="762.443" y="322.342" width="10.3805" height="12.8111" rx="2.35461" stroke="black" stroke-width="0.962097"/>
<rect x="765.27" y="320.241" width="10.0598" height="12.4904" rx="2.19426" fill="#F6D2B7" stroke="black" stroke-width="1.2828"/>
<path d="M129.395 485.823C129.543 485.998 129.624 486.22 129.624 486.449V498.464C129.624 498.648 129.571 498.829 129.472 498.985C129.372 499.141 129.23 499.265 129.063 499.343C128.895 499.421 128.709 499.449 128.526 499.424C128.342 499.399 128.17 499.322 128.029 499.203L124.18 495.943H121.293C120.83 495.943 120.387 495.76 120.06 495.433C119.733 495.105 119.549 494.662 119.549 494.199V490.712C119.549 490.249 119.733 489.806 120.06 489.479C120.387 489.152 120.83 488.968 121.293 488.968H124.18L128.03 485.71C128.226 485.544 128.48 485.463 128.736 485.484C128.992 485.506 129.229 485.628 129.395 485.824V485.823ZM128.462 486.868L124.606 490.131H121.293C121.138 490.131 120.991 490.192 120.882 490.301C120.773 490.41 120.711 490.558 120.711 490.712V494.199C120.711 494.521 120.972 494.781 121.293 494.781H124.606L128.462 498.046V486.868ZM131.255 489.852C131.386 489.772 131.544 489.748 131.694 489.784C131.844 489.82 131.973 489.915 132.053 490.046C132.498 490.775 132.721 491.59 132.721 492.48C132.721 493.37 132.498 494.186 132.053 494.914C132.014 494.981 131.963 495.04 131.901 495.087C131.839 495.134 131.768 495.169 131.693 495.188C131.618 495.207 131.54 495.211 131.463 495.2C131.386 495.188 131.312 495.161 131.246 495.121C131.18 495.081 131.122 495.027 131.077 494.964C131.032 494.901 130.999 494.83 130.982 494.754C130.965 494.678 130.963 494.6 130.977 494.523C130.99 494.447 131.019 494.374 131.061 494.309C131.393 493.765 131.559 493.159 131.559 492.48C131.559 491.801 131.393 491.195 131.061 490.651C130.981 490.52 130.956 490.362 130.993 490.212C131.029 490.063 131.123 489.933 131.255 489.853V489.852Z" fill="black"/>
<path d="M473.184 485.823C473.332 485.998 473.413 486.22 473.413 486.449V498.464C473.413 498.648 473.36 498.829 473.261 498.985C473.161 499.141 473.02 499.265 472.852 499.343C472.684 499.421 472.498 499.449 472.315 499.424C472.131 499.399 471.959 499.322 471.818 499.203L467.969 495.943H465.082C464.619 495.943 464.176 495.76 463.849 495.433C463.522 495.105 463.338 494.662 463.338 494.199V490.712C463.338 490.249 463.522 489.806 463.849 489.479C464.176 489.152 464.619 488.968 465.082 488.968H467.969L471.819 485.71C472.015 485.544 472.269 485.463 472.525 485.484C472.781 485.506 473.018 485.628 473.184 485.824V485.823ZM472.251 486.868L468.395 490.131H465.082C464.928 490.131 464.78 490.192 464.671 490.301C464.562 490.41 464.5 490.558 464.5 490.712V494.199C464.5 494.521 464.761 494.781 465.082 494.781H468.395L472.251 498.046V486.868ZM475.044 489.852C475.175 489.772 475.333 489.748 475.483 489.784C475.633 489.82 475.762 489.915 475.842 490.046C476.287 490.775 476.51 491.59 476.51 492.48C476.51 493.37 476.287 494.186 475.842 494.914C475.803 494.981 475.752 495.04 475.69 495.087C475.628 495.134 475.558 495.169 475.482 495.188C475.407 495.207 475.329 495.211 475.252 495.2C475.175 495.188 475.101 495.161 475.035 495.121C474.969 495.081 474.911 495.027 474.866 494.964C474.821 494.901 474.788 494.83 474.771 494.754C474.754 494.678 474.752 494.6 474.766 494.523C474.779 494.447 474.808 494.374 474.85 494.309C475.182 493.765 475.348 493.159 475.348 492.48C475.348 491.801 475.182 491.195 474.85 490.651C474.77 490.52 474.745 490.362 474.782 490.212C474.818 490.063 474.912 489.933 475.044 489.853V489.852Z" fill="black"/>
<path d="M150.389 485.481C149.773 485.481 149.181 485.726 148.745 486.162C148.309 486.598 148.064 487.189 148.064 487.806V492.456C148.064 493.072 148.309 493.664 148.745 494.1C149.181 494.536 149.773 494.781 150.389 494.781C151.006 494.781 151.597 494.536 152.033 494.1C152.469 493.664 152.714 493.072 152.714 492.456V487.806C152.714 487.189 152.469 486.598 152.033 486.162C151.597 485.726 151.006 485.481 150.389 485.481ZM150.389 484.318C151.314 484.318 152.201 484.686 152.855 485.34C153.509 485.994 153.877 486.881 153.877 487.806V492.456C153.877 493.381 153.509 494.268 152.855 494.922C152.201 495.576 151.314 495.943 150.389 495.943C149.464 495.943 148.577 495.576 147.923 494.922C147.269 494.268 146.902 493.381 146.902 492.456V487.806C146.902 486.881 147.269 485.994 147.923 485.34C148.577 484.686 149.464 484.318 150.389 484.318ZM149.808 499.431V498.269C148.421 498.269 147.09 497.717 146.109 496.736C145.128 495.755 144.577 494.425 144.577 493.037V492.456C144.577 492.302 144.638 492.154 144.747 492.045C144.856 491.936 145.004 491.875 145.158 491.875C145.312 491.875 145.46 491.936 145.569 492.045C145.678 492.154 145.739 492.302 145.739 492.456V493.037C145.739 494.116 146.168 495.151 146.931 495.914C147.694 496.677 148.729 497.106 149.808 497.106H150.971C152.05 497.106 153.085 496.677 153.848 495.914C154.611 495.151 155.039 494.116 155.039 493.037V492.456C155.039 492.302 155.101 492.154 155.21 492.045C155.319 491.936 155.467 491.875 155.621 491.875C155.775 491.875 155.923 491.936 156.032 492.045C156.141 492.154 156.202 492.302 156.202 492.456V493.037C156.202 494.425 155.651 495.755 154.67 496.736C153.689 497.717 152.358 498.269 150.971 498.269V499.431H152.133C152.287 499.431 152.435 499.492 152.544 499.601C152.653 499.71 152.714 499.858 152.714 500.012C152.714 500.166 152.653 500.314 152.544 500.423C152.435 500.532 152.287 500.594 152.133 500.594H148.646C148.491 500.594 148.344 500.532 148.235 500.423C148.126 500.314 148.064 500.166 148.064 500.012C148.064 499.858 148.126 499.71 148.235 499.601C148.344 499.492 148.491 499.431 148.646 499.431H149.808Z" fill="black"/>
<path d="M101.964 617.849H793.391V1109.16C793.391 1122.98 782.191 1134.17 768.376 1134.17H126.978C113.163 1134.17 101.964 1122.98 101.964 1109.16V617.849Z" fill="#FFE1E7" stroke="black" stroke-width="1.2828"/>
<rect x="134.033" y="639.016" width="627.287" height="39.7667" rx="12.828" fill="#5F5F5F"/>
<g clip-path="url(#clip0_116_999)">
<path d="M743.269 666.915L737.816 661.428C738.832 660.211 739.445 658.645 739.445 656.935C739.445 653.06 736.304 649.919 732.429 649.919C728.555 649.919 725.414 653.06 725.414 656.935C725.414 660.809 728.555 663.95 732.429 663.95C734.19 663.95 735.798 663.3 737.029 662.229L742.475 667.709C742.694 667.928 743.05 667.928 743.269 667.709C743.488 667.489 743.488 667.134 743.269 666.915H743.269ZM732.429 662.837C729.17 662.837 726.527 660.194 726.527 656.935C726.527 653.675 729.17 651.033 732.429 651.033C735.689 651.033 738.331 653.675 738.331 656.935C738.331 660.194 735.689 662.837 732.429 662.837Z" fill="#9F9F9F"/>
</g>
<path d="M153.88 664.354H158.461V663.97L156.89 663.395V658.277H163.694V663.395L162.123 663.97V664.354H166.704V663.97L165.189 663.395V652.661L166.704 652.086V651.703H162.123V652.086L163.694 652.661V657.377H156.89V652.661L158.461 652.086V651.703H153.88V652.086L155.395 652.661V663.395L153.88 663.97V664.354ZM170.937 664.545C172.01 664.545 173.007 664.047 173.678 663.395H173.754C173.927 664.066 174.406 664.545 175.249 664.545C176.035 664.545 176.572 664.105 176.821 663.664V663.625L176.783 663.587H175.94C175.441 663.587 175.154 663.472 174.962 663.28V657.626C174.962 656.092 173.754 655.536 172.317 655.536C171.55 655.536 170.783 655.881 170.074 656.341C169.403 656.763 169.077 657.357 169.077 657.894C169.077 658.316 169.192 658.392 169.576 658.392H170.381L170.477 658.297V657.664C170.477 656.821 170.822 656.303 171.857 656.303C172.777 656.303 173.678 657.032 173.678 657.99V659.466L171.818 659.926C169.691 660.443 168.847 661.306 168.847 662.552C168.847 663.798 169.729 664.545 170.937 664.545ZM170.132 662.188C170.132 661.249 170.572 660.635 173.678 660.022V663.031C172.949 663.376 172.298 663.53 171.665 663.53C170.687 663.53 170.132 663.089 170.132 662.188ZM179.689 650.802C179.689 652.661 180.763 654.003 182.776 654.003C184.788 654.003 185.842 652.661 185.842 650.802H184.443C184.443 652.354 183.887 653.409 182.776 653.409C181.645 653.409 181.089 652.354 181.089 650.802H179.689ZM179.229 656.514V663.568L178.022 664.047V664.354H181.798V664.047L180.533 663.568V662.878L184.98 658.143V663.568L183.715 664.047V664.354H187.491V664.047L186.283 663.568V656.514L187.491 656.035V655.728H183.715V656.035L184.98 656.514V657.185L180.533 661.9V656.514L181.798 656.035V655.728H178.022V656.035L179.229 656.514ZM189.075 658.852H189.382L190.513 656.456H192.391V663.568L190.973 664.047V664.354H195.132V664.047L193.695 663.568V656.456H195.573L196.704 658.852H197.011V655.728H189.075V658.852ZM199.802 656.514V663.568L198.594 664.047V664.354H202.37V664.047L201.105 663.568V662.878L205.552 658.143V663.568L204.287 664.047V664.354H208.063V664.047L206.855 663.568V656.514L208.063 656.035V655.728H204.287V656.035L205.552 656.514V657.185L201.105 661.9V656.514L202.37 656.035V655.728H198.594V656.035L199.802 656.514ZM219.423 664.354H223.027V664.047L221.819 663.568V656.514L223.027 656.035V655.728H219.136C217.2 655.728 215.724 656.399 215.724 658.239C215.724 659.293 216.51 660.098 217.909 660.328L215.532 663.53L214.42 664.047V664.354H216.644L217.142 663.357L219.136 660.558H220.516V663.568L219.423 664.047V664.354ZM219.04 659.945C217.641 659.945 217.027 659.178 217.027 658.162C217.027 657.223 217.621 656.399 219.155 656.399H220.516V659.945H219.04ZM228.015 663.951C226.884 663.951 226.309 663.549 225.926 662.686L225.504 661.843H225.255V663.932C226.079 664.335 226.789 664.545 228.035 664.545C230.066 664.545 231.542 663.625 231.542 661.939C231.542 660.827 230.776 659.945 228.974 659.734C230.584 659.428 231.082 658.527 231.082 657.549C231.082 655.977 229.53 655.536 228.169 655.536C226.961 655.536 226.099 655.805 225.447 656.15V658.182H225.715L226.175 657.242C226.539 656.476 227.057 656.15 227.939 656.15C229.146 656.15 229.721 656.782 229.721 657.817C229.721 658.757 229.204 659.466 227.977 659.466H226.827V660.137H227.862C229.53 660.137 230.143 660.961 230.143 661.996C230.143 663.395 229.223 663.951 228.015 663.951ZM244.162 656.514L245.37 656.035V655.728H241.594V656.035L242.859 656.514V663.568L241.594 664.047V664.354H245.37V664.047L244.162 663.568V656.514ZM237.108 659.159H236.016V656.514L237.607 656.035V655.728H233.505V656.035L234.712 656.514V663.568L233.505 664.047V664.354H237.013C239.754 664.354 241.287 663.395 241.287 661.651C241.287 660.271 240.118 659.159 237.108 659.159ZM237.415 659.888C239.044 659.888 239.869 660.539 239.869 661.785C239.869 662.954 239.044 663.625 237.453 663.625H236.016V659.888H237.415ZM253.951 664.354H256.289V664.047L255.062 663.53L251.114 659.504L254.813 656.571L256.098 656.035V655.728H252.858V656.035L253.567 656.591V656.706L249.868 659.773V656.514L251.133 656.035V655.728H247.357V656.035L248.564 656.514V663.568L247.357 664.047V664.354H251.133V664.047L249.868 663.568V659.983L253.318 663.491L253.951 664.354Z" fill="white"/>
<path d="M92.764 200.557H101.573V200.004L98.8095 198.623V177.757H98.1186L89.8275 182.939V184.148L95.8731 181.108V198.623L92.764 200.004V200.557ZM107.55 200.903C115.703 198.623 120.781 193.095 120.781 185.84C120.781 181.039 117.775 177.411 113.25 177.411C108.241 177.411 105.788 181.004 105.788 184.528C105.788 188.328 108.172 191.161 111.868 191.161C114.252 191.161 116.152 190.055 117.361 188.328C116.67 193.855 113.181 198.139 107.55 199.901V200.903ZM108.966 183.768C108.966 181.349 110.382 179 113.181 179C115.495 179 117.499 181.004 117.499 186.151C117.499 186.29 117.499 186.393 117.499 186.531C116.566 187.948 115.046 188.846 113.215 188.846C110.417 188.846 108.966 187.188 108.966 183.768ZM126.343 188.881C127.483 188.881 128.45 187.913 128.45 186.773C128.45 185.633 127.483 184.666 126.343 184.666C125.203 184.666 124.235 185.633 124.235 186.773C124.235 187.913 125.203 188.881 126.343 188.881ZM126.343 200.73C127.483 200.73 128.45 199.763 128.45 198.623C128.45 197.483 127.483 196.515 126.343 196.515C125.203 196.515 124.235 197.483 124.235 198.623C124.235 199.763 125.203 200.73 126.343 200.73ZM139.298 200.903C143.685 200.903 146.794 195.893 146.794 189.157C146.794 181.902 144.065 177.411 139.298 177.411C134.876 177.411 131.801 182.42 131.801 189.157C131.801 196.412 134.53 200.903 139.298 200.903ZM140.023 199.279C136.672 199.279 134.979 194.995 134.979 188.017C134.979 182.835 136.361 179 138.71 179C141.958 179 143.616 183.284 143.616 190.228C143.616 195.444 142.303 199.279 140.023 199.279ZM150.732 200.903C158.885 198.623 163.963 193.095 163.963 185.84C163.963 181.039 160.958 177.411 156.432 177.411C151.423 177.411 148.97 181.004 148.97 184.528C148.97 188.328 151.354 191.161 155.051 191.161C157.434 191.161 159.334 190.055 160.543 188.328C159.852 193.855 156.363 198.139 150.732 199.901V200.903ZM152.149 183.768C152.149 181.349 153.565 179 156.363 179C158.678 179 160.682 181.004 160.682 186.151C160.682 186.29 160.682 186.393 160.682 186.531C159.749 187.948 158.229 188.846 156.398 188.846C153.6 188.846 152.149 187.188 152.149 183.768Z" fill="black"/>
<rect x="798.792" y="185.297" width="4.06393" height="8.12785" rx="2.03196" fill="black"/>
<rect width="12.1309" height="12.7157" transform="matrix(0.999356 0.035884 0.0460978 0.998937 763.024 181.661)" fill="#747474"/>
<rect x="1.77027" y="1.75227" width="37.0497" height="13.5677" rx="3.72527" transform="matrix(0.999356 0.035884 0.0460978 0.998937 760.153 179.386)" stroke="black" stroke-width="3.38661"/>
<g clip-path="url(#clip1_116_999)">
<path d="M728.498 174.551H728.455C722.453 174.551 716.995 176.878 712.932 180.678L712.945 180.666L712.203 181.358L715.948 185.067L716.646 184.427C719.749 181.565 723.911 179.809 728.484 179.809C733.056 179.809 737.219 181.564 740.334 184.438L740.322 184.427L741.02 185.067L744.765 181.358L744.023 180.666C739.828 176.73 734.288 174.542 728.535 174.551H728.496H728.497H728.498Z" fill="black"/>
<path d="M738.774 186.215C735.969 183.664 732.312 182.253 728.521 182.259H727.867L727.86 182.274C724.277 182.414 720.859 183.813 718.206 186.226L718.218 186.214L717.455 186.905L721.23 190.643L721.928 190.032C723.664 188.475 725.972 187.524 728.501 187.524C731.031 187.524 733.338 188.476 735.085 190.041L735.075 190.033L735.773 190.644L739.547 186.907L738.774 186.215Z" fill="black"/>
<path d="M728.506 197.821L733.814 192.571L732.971 191.879C731.697 190.876 730.107 190.36 728.487 190.425H728.499H728.435C726.839 190.422 725.285 190.938 724.007 191.894L724.027 191.88L723.191 192.572L723.962 193.335L727.801 197.131L728.506 197.821Z" fill="black"/>
</g>
<rect width="4.04364" height="9.53681" transform="matrix(0.999356 0.035884 0.0460978 0.998937 677.985 186.58)" fill="black"/>
<rect width="4.04364" height="13.7754" transform="matrix(0.999356 0.035884 0.0460978 0.998937 684.524 182.588)" fill="black"/>
<rect width="4.04364" height="19.0736" transform="matrix(0.999356 0.035884 0.0460978 0.998937 691.016 177.537)" fill="black"/>
<rect width="4.04364" height="5.29823" transform="matrix(0.999356 0.035884 0.0460978 0.998937 671.445 190.572)" fill="black"/>
<defs>
<filter id="filter0_d_116_999" x="0.0477314" y="0.143194" width="914.729" height="1353.63" filterUnits="userSpaceOnUse" color-interpolation-filters="sRGB">
<feFlood flood-opacity="0" result="BackgroundImageFix"/>
<feColorMatrix in="SourceAlpha" type="matrix" values="0 0 0 0 0 0 0 0 0 0 0 0 0 0 0 0 0 0 127 0" result="hardAlpha"/>
<feOffset dx="10.4121" dy="6.50756"/>
<feGaussianBlur stdDeviation="6.18218"/>
<feComposite in2="hardAlpha" operator="out"/>
<feColorMatrix type="matrix" values="0 0 0 0 0 0 0 0 0 0 0 0 0 0 0 0 0 0 0.25 0"/>
<feBlend mode="normal" in2="BackgroundImageFix" result="effect1_dropShadow_116_999"/>
<feBlend mode="normal" in="SourceGraphic" in2="effect1_dropShadow_116_999" result="shape"/>
</filter>
<linearGradient id="paint0_linear_116_999" x1="1.99999" y1="77.1187" x2="892" y2="1108" gradientUnits="userSpaceOnUse">
<stop stop-color="#A0DDFF"/>
<stop offset="1" stop-color="#C3FFF1"/>
</linearGradient>
<clipPath id="clip0_116_999">
<rect width="18.0306" height="17.9591" fill="white" transform="translate(725.402 649.919)"/>
</clipPath>
<clipPath id="clip1_116_999">
<rect width="32.9649" height="23.2694" fill="white" transform="translate(712.203 174.551)"/>
</clipPath>
</defs>
</svg>
