<svg width="142" height="109" viewBox="0 0 142 109" fill="none" xmlns="http://www.w3.org/2000/svg">
<path d="M7.19538 57.4371L2.86259 45.5329L4.54652 44.92L13.5333 52.7513L13.6 52.727C13.4837 52.442 13.3456 52.1146 13.1859 51.7448C13.0261 51.375 12.8719 51.0032 12.7232 50.6293C12.5705 50.2443 12.4436 49.9129 12.3424 49.635L9.9151 42.966L11.2322 42.4866L15.565 54.3908L13.9311 54.9855L4.86551 47.1452L4.79882 47.1694C4.92623 47.4503 5.06832 47.7888 5.22507 48.1849C5.3889 48.5659 5.54716 48.9488 5.69987 49.3338C5.8637 49.7147 6.00023 50.0553 6.10946 50.3554L8.51251 56.9577L7.19538 57.4371ZM17.1489 53.8143L16.7302 52.6639L21.0151 51.1043L21.4338 52.2548L17.1489 53.8143ZM18.4699 50.8034C17.9919 50.9774 17.5255 51.0276 17.0708 50.9539C16.6231 50.8651 16.2167 50.648 15.8518 50.3025C15.4869 49.957 15.1932 49.4785 14.9707 48.8672C14.639 47.9558 14.6084 47.1802 14.8791 46.5404C15.1568 45.8855 15.6847 45.4164 16.4627 45.1332C16.9407 44.9593 17.4035 44.9167 17.8512 45.0055C18.306 45.0791 18.7158 45.2887 19.0807 45.6342C19.4527 45.9645 19.75 46.4354 19.9725 47.0467C20.3042 47.9581 20.3312 48.7413 20.0535 49.3963C19.7758 50.0512 19.2479 50.5203 18.4699 50.8034ZM18.1512 49.8243C18.6403 49.6463 18.9338 49.3632 19.0317 48.9752C19.1256 48.576 19.0612 48.0707 18.8387 47.4594C18.6122 46.8369 18.3407 46.4196 18.0244 46.2075C17.7039 45.9843 17.2992 45.9616 16.8101 46.1397C16.3322 46.3136 16.0367 46.5911 15.9236 46.9721C15.8065 47.342 15.8612 47.8382 16.0878 48.4606C16.3103 49.072 16.5858 49.5004 16.9143 49.7458C17.2499 49.9761 17.6622 50.0023 18.1512 49.8243ZM31.3568 48.8319C33.9577 47.8852 34.6332 45.6946 33.9778 43.894C33.3224 42.0933 31.7017 41.1161 29.8677 41.7836C28.7339 42.1962 28.0263 43.0014 27.7113 44.0034C27.1375 41.2857 27.978 38.7706 30.3316 36.9888L30.1314 36.4386C26.2652 38.9409 24.617 42.5052 25.9217 46.0898C26.8198 48.5573 29.006 49.6875 31.3568 48.8319ZM28.0709 45.2509C28.0284 45.1342 27.992 45.0341 27.9662 44.9114C28.1373 44.1883 28.6207 43.5969 29.3543 43.3299C30.5547 42.893 31.4659 43.5809 32.0121 45.0815C32.4065 46.1652 32.322 47.5931 31.1383 48.024C30.0712 48.4124 28.9023 47.535 28.0709 45.2509ZM39.3619 45.9183C41.9128 44.9898 43.1915 42.6929 42.3359 40.3421C41.6623 38.4914 39.7732 37.3475 36.5554 38.5187C36.1052 38.6825 35.7505 38.8494 35.4065 38.9935L34.5812 36.726L39.4162 34.9662L38.864 33.449L33.1787 35.5183L35.2055 41.087C35.7693 40.7685 36.2346 40.5425 36.7515 40.3543C39.0523 39.5169 40.2803 40.2972 40.8204 41.7811C41.3484 43.2316 40.8106 44.5036 39.6102 44.9405C38.7265 45.2621 38.0686 45.0107 37.4697 44.4545L37.1588 44.1711L36.9588 44.244L36.4209 45.1006C36.2754 45.3235 36.23 45.5099 36.2846 45.66C36.321 45.76 36.3969 45.8646 36.5394 45.9449C37.1686 46.3767 38.1614 46.3552 39.3619 45.9183ZM53.4684 43.4273L53.8518 43.2877L53.8336 43.2377C51.6882 41.5451 50.1779 39.6781 49.0674 36.627C47.9569 33.5759 47.9016 31.1414 48.4692 28.4991L48.451 28.4491L48.0676 28.5887C46.9846 31.4752 46.8823 34.3068 47.8836 37.0578C48.8849 39.8088 50.7833 41.9122 53.4684 43.4273ZM56.7509 39.5892C59.3018 38.6607 60.5805 36.3638 59.7248 34.013C59.0513 32.1624 57.1622 31.0184 53.9444 32.1896C53.4942 32.3535 53.1395 32.5203 52.7955 32.6644L51.9702 30.397L56.8052 28.6371L56.253 27.1199L50.5677 29.1892L52.5945 34.7579C53.1583 34.4394 53.6236 34.2134 54.1404 34.0253C56.4413 33.1878 57.6693 33.9681 58.2094 35.452C58.7374 36.9025 58.1996 38.1745 56.9992 38.6114C56.1155 38.933 55.4576 38.6816 54.8587 38.1254L54.5478 37.8421L54.3477 37.9149L53.8099 38.7715C53.6644 38.9944 53.619 39.1808 53.6736 39.3309C53.71 39.4309 53.7858 39.5355 53.9284 39.6158C54.5576 40.0476 55.5504 40.0261 56.7509 39.5892ZM64.5452 36.5635L69.497 34.7612L69.3999 34.4944L67.7915 34.3812L64.108 24.2609L63.3578 24.534L60.1666 28.5277L60.3972 29.1613L62.746 26.7959L65.7741 35.1155L64.4481 36.2967L64.5452 36.5635ZM75.4786 32.7729C77.4793 32.0447 78.8597 30.1828 78.1558 28.2488C77.6703 26.9149 76.6167 26.3544 74.5413 25.9957C75.5657 24.8677 76.143 23.8079 75.8092 22.8909C75.2388 21.3237 73.3029 20.7255 71.4855 21.3869C69.6182 22.0666 68.4091 24.036 68.9917 25.6366C69.4347 26.8537 70.1867 27.4674 71.9422 27.8292C70.5041 29.4288 70.4165 30.5369 70.7746 31.5206C71.3571 33.1212 73.4279 33.5193 75.4786 32.7729ZM70.6709 24.2324C70.3371 23.3154 70.781 22.5119 71.6646 22.1903C72.6817 21.8201 73.6186 22.2155 74.1101 23.566C74.4135 24.3996 74.2152 25.1515 73.6849 25.8732C71.5156 25.5677 70.9864 25.0994 70.6709 24.2324ZM72.4493 30.5712C72.0973 29.6042 72.0729 28.9145 72.7093 27.9654C75.065 28.3164 76.0458 28.4692 76.4766 29.6529C76.8529 30.6866 76.412 31.6023 75.2283 32.0332C74.0612 32.458 72.9469 31.9384 72.4493 30.5712ZM84.4173 29.5194C86.4181 28.7912 87.7985 26.9293 87.0945 24.9953C86.6091 23.6615 85.5554 23.101 83.4801 22.7423C84.5045 21.6142 85.0817 20.5545 84.7479 19.6375C84.1775 18.0703 82.2416 17.4721 80.4243 18.1335C78.5569 18.8132 77.3479 20.7826 77.9304 22.3832C78.3734 23.6003 79.1255 24.214 80.8809 24.5758C79.4428 26.1754 79.3553 27.2835 79.7133 28.2672C80.2958 29.8678 82.3666 30.2658 84.4173 29.5194ZM79.6096 20.979C79.2758 20.062 79.7197 19.2585 80.6034 18.9369C81.6204 18.5667 82.5573 18.9621 83.0488 20.3125C83.3523 21.1462 83.1539 21.8981 82.6236 22.6198C80.4543 22.3142 79.9251 21.846 79.6096 20.979ZM81.388 27.3178C81.0361 26.3508 81.0116 25.6611 81.648 24.712C84.0037 25.0629 84.9845 25.2157 85.4154 26.3995C85.7916 27.4332 85.3508 28.3489 84.167 28.7798C82.9999 29.2045 81.8856 28.6849 81.388 27.3178ZM89.9375 30.1536L90.3209 30.0141C91.4039 27.1276 91.5061 24.2959 90.5049 21.545C89.5036 18.794 87.6051 16.6905 84.9201 15.1755L84.5366 15.315L84.5548 15.3651C86.6881 17.0243 88.2106 18.9247 89.3211 21.9758C90.4316 25.0269 90.4748 27.428 89.9192 30.1036L89.9375 30.1536Z" fill="black"/>
<path d="M19.4417 78.4783L23.6681 76.9401L23.5868 76.7169L22.221 76.5664L19.4541 68.9646L20.3986 67.9574L20.3174 67.7342L16.3003 69.1963L16.3815 69.4195L17.7106 69.5992L18.9646 73.0444C18.4929 73.4846 17.9046 73.7777 17.3327 73.9859C15.8263 74.5341 15.0666 74.2262 14.4726 72.5943L13.8888 70.9902L14.7775 70.0033L14.6962 69.7801L10.6512 71.2524L10.7324 71.4756L12.1313 71.6299L12.6846 73.1502C13.5731 75.5912 15.0391 75.8 16.9501 75.1045C17.9404 74.744 18.6783 74.2543 19.2286 73.7697L20.4774 77.201L19.3605 78.2552L19.4417 78.4783ZM28.0678 75.4967C29.2952 75.0499 29.9899 74.0073 30.1062 72.9382L30.0351 72.7429L29.9933 72.7581C29.4647 73.3455 28.9156 73.7032 28.3996 73.8911C26.7397 74.4952 25.7541 73.6535 25.2883 72.4171L29.3054 70.955L29.3358 70.865C28.6416 69.001 27.377 68.2607 25.8846 68.804C24.1131 69.4487 23.1778 71.4793 23.9444 73.5855C24.6044 75.3988 26.1987 76.177 28.0678 75.4967ZM25.834 69.5332C26.5315 69.2793 27.1504 69.5911 27.7798 70.7995L25.1017 71.7742C24.8211 70.6127 25.0808 69.8073 25.834 69.5332ZM30.1261 70.1193L30.3772 70.0279L30.7151 67.9619L31.8589 67.5456L33.6764 72.5391L32.709 73.3967L32.7903 73.6199L36.6539 72.2136L36.5727 71.9904L35.2805 71.9553L33.463 66.9618L34.6067 66.5455L36.1936 67.9109L36.4447 67.8195L35.5765 65.4343L29.258 67.7341L30.1261 70.1193ZM37.578 65.464L39.3955 70.4575L38.6513 71.2339L38.7326 71.4571L41.7454 70.3605C44.0608 69.5177 45.018 68.4585 44.5611 67.2032C44.2971 66.4779 43.4866 66.0304 41.7848 66.4761C42.9133 65.8442 43.2974 65.12 43.0232 64.3667C42.612 63.2369 41.2399 63.373 39.5521 63.9873L36.4277 65.1245L36.509 65.3477L37.578 65.464ZM39.8871 64.5604C40.738 64.2507 41.2491 64.5702 41.4674 65.17C41.706 65.8255 41.4855 66.3481 40.6068 66.6679L39.9373 66.9116L39.1757 64.8193L39.8871 64.5604ZM40.7908 67.217C41.9346 66.8007 42.6005 67.1112 42.8848 67.8923C43.1691 68.6734 42.8192 69.2746 41.6336 69.7061L41.0338 69.9244L40.1353 67.4556L40.7908 67.217ZM49.3172 67.7625C50.5446 67.3158 51.2393 66.2731 51.3556 65.2041L51.2845 65.0088L51.2427 65.024C50.714 65.6113 50.165 65.9691 49.6489 66.1569C47.9891 66.7611 47.0035 65.9193 46.5377 64.683L50.5548 63.2209L50.5852 63.1308C49.891 61.2668 48.6264 60.5266 47.1339 61.0698C45.3625 61.7146 44.4272 63.7452 45.1938 65.8514C45.8538 67.6646 47.4481 68.4428 49.3172 67.7625ZM47.0834 61.799C47.7808 61.5452 48.3998 61.857 49.0292 63.0653L46.3511 64.0401C46.0705 62.8785 46.3302 62.0732 47.0834 61.799ZM54.1891 69.4644L57.7598 68.1648L57.6786 67.9416L56.47 67.876L55.5461 65.3374C55.9582 65.298 56.3919 65.1875 56.8661 65.0149C58.6097 64.3803 59.5869 62.5082 58.7695 60.2626C58.0892 58.3935 56.6078 57.6216 55.2966 58.0988C54.5574 58.3679 54.035 58.8423 53.5559 59.696L53.4722 59.7264L53.051 58.9162L52.9115 58.967L51.0072 60.592L51.0579 60.7315L52.1715 61.1002L54.852 68.4649L54.1079 69.2413L54.1891 69.4644ZM54.6972 59.5333C55.6318 59.1932 56.7238 59.6329 57.3228 61.2788C58.0031 63.1479 57.491 63.9977 56.7239 64.2769C56.1659 64.48 55.6638 64.489 55.1552 64.2634L53.7032 60.2742C53.9986 59.914 54.3067 59.6755 54.6972 59.5333ZM59.958 57.3184L61.7755 62.3119L61.0313 63.0882L61.1125 63.3114L64.8088 61.9661L64.7276 61.7429L63.3935 61.723L61.576 56.7295L63.4311 56.0543L65.032 57.4146L65.2691 57.3283L64.401 54.9431L58.8077 56.9789L58.8889 57.2021L59.958 57.3184ZM67.9743 64.1311C69.2928 62.893 69.5131 61.6755 69.1425 60.6573C68.8734 59.918 68.2532 59.3856 67.4795 59.2564C67.2956 59.2286 67.1688 59.2274 67.0851 59.2578C66.9317 59.3137 66.8924 59.4227 66.8481 59.6916L66.6506 60.7113L66.7483 60.8495L67.319 60.9419C67.8428 61.0356 68.2436 61.2688 68.4365 61.7988C68.6345 62.3428 68.5307 63.0124 67.8372 63.7545L67.9743 64.1311ZM75.3154 58.142L79.4581 56.6342L79.3768 56.411L78.0313 56.3163L74.9497 47.8497L74.322 48.0781L71.6522 51.4193L71.8451 51.9493L73.8102 49.9704L76.3435 56.9306L75.2342 57.9188L75.3154 58.142ZM84.5321 54.9454C86.708 54.1534 87.2731 52.3207 86.7248 50.8143C86.1765 49.3079 84.8206 48.4903 83.2863 49.0488C82.3378 49.394 81.7457 50.0676 81.4822 50.9059C81.0022 48.6322 81.7054 46.5281 83.6744 45.0374L83.5069 44.5772C80.2724 46.6706 78.8935 49.6524 79.985 52.6513C80.7364 54.7157 82.5654 55.6612 84.5321 54.9454ZM81.7831 51.9495C81.7475 51.8519 81.7171 51.7682 81.6955 51.6655C81.8386 51.0605 82.243 50.5658 82.8567 50.3424C83.861 49.9769 84.6233 50.5524 85.0803 51.8078C85.4102 52.7144 85.3396 53.909 84.3492 54.2695C83.4566 54.5944 82.4786 53.8604 81.7831 51.9495ZM91.0839 45.9895L92.7619 51.0338L92.0177 51.8101L92.0989 52.0333L94.5399 51.1449L94.4587 50.9217L93.5011 50.7647L92.0948 46.5535L96.0742 50.5864L96.5484 50.4138L96.874 44.7983L98.6062 48.9066L97.9736 49.6423L98.0549 49.8655L101.375 48.6572L101.293 48.4341L100.224 48.3177L98.1417 43.4207L98.8859 42.6443L98.8047 42.4212L96.2661 43.3451L95.9847 47.9968L95.8731 48.0375L92.6256 44.6702L89.9336 45.65L90.0148 45.8732L91.0839 45.9895ZM103.986 47.8648C104.781 47.5754 105.336 46.931 105.622 46.2423L105.72 46.2068C106.118 46.6937 106.678 46.885 107.375 46.6312C108.1 46.3672 108.429 45.837 108.52 45.3931L108.469 45.2536L108.412 45.227L107.952 45.3945C107.589 45.5265 107.336 45.5241 107.159 45.4303L105.773 41.6224C105.332 40.4089 104.076 40.3446 102.849 40.7913C102.193 41.0299 101.716 41.4562 101.254 42.0511C100.84 42.5648 100.691 43.1089 100.838 43.5134C100.96 43.8482 101.088 43.8963 101.367 43.7948L102.204 43.4902L102.253 43.409L102.055 42.865C101.852 42.3071 101.954 41.8911 102.609 41.6525C103.265 41.4139 103.972 41.7091 104.221 42.3926L104.556 43.3132L103.362 44.1112C101.813 45.149 101.496 45.9278 101.832 46.8953C102.174 47.8768 103.093 48.1897 103.986 47.8648ZM103.239 45.9881C103.001 45.3326 103.147 44.8215 104.749 43.8432L105.496 45.8936C105.166 46.2032 104.884 46.3846 104.536 46.5115C103.922 46.7349 103.453 46.574 103.239 45.9881ZM110.527 48.9591L114.098 47.6594L114.017 47.4362L112.808 47.3706L111.884 44.832C112.296 44.7926 112.73 44.6822 113.204 44.5095C114.948 43.8749 115.925 42.0028 115.108 39.7572C114.427 37.8881 112.946 37.1162 111.635 37.5934C110.895 37.8625 110.373 38.337 109.894 39.1906L109.81 39.221L109.389 38.4108L109.25 38.4616L107.345 40.0866L107.396 40.2261L108.51 40.5948L111.19 47.9595L110.446 48.7359L110.527 48.9591ZM111.035 39.0279C111.97 38.6878 113.062 39.1275 113.661 40.7734C114.341 42.6425 113.829 43.4923 113.062 43.7715C112.504 43.9746 112.002 43.9836 111.493 43.758L110.041 39.7688C110.337 39.4086 110.645 39.1701 111.035 39.0279ZM115.846 38.9199L116.097 38.8285L116.435 36.7626L117.578 36.3463L119.396 41.3398L118.429 42.1974L118.51 42.4205L122.373 41.0143L122.292 40.7911L121 40.756L119.182 35.7625L120.326 35.3462L121.913 36.7115L122.164 36.6201L121.296 34.235L114.977 36.5348L115.846 38.9199ZM126.093 39.8183C126.888 39.529 127.444 38.8846 127.73 38.1959L127.828 38.1603C128.226 38.6472 128.785 38.8385 129.483 38.5847C130.208 38.3207 130.536 37.7905 130.627 37.3466L130.577 37.2071L130.52 37.1805L130.059 37.348C129.697 37.48 129.443 37.4776 129.267 37.3838L127.881 33.5759C127.439 32.3624 126.184 32.2981 124.956 32.7448C124.301 32.9835 123.824 33.4097 123.361 34.0046C122.948 34.5183 122.798 35.0624 122.946 35.4669C123.067 35.8017 123.196 35.8498 123.475 35.7483L124.311 35.4437L124.361 35.3625L124.163 34.8185C123.96 34.2606 124.061 33.8446 124.717 33.606C125.372 33.3674 126.08 33.6627 126.329 34.3461L126.664 35.2667L125.469 36.0647C123.92 37.1026 123.603 37.8813 123.94 38.8488C124.281 39.8303 125.201 40.1432 126.093 39.8183ZM125.347 37.9417C125.108 37.2861 125.254 36.775 126.857 35.7968L127.603 37.8472C127.273 38.1567 126.992 38.3381 126.643 38.465C126.03 38.6884 125.56 38.5275 125.347 37.9417Z" fill="black"/>
<path d="M29.7499 100.308L31.5286 101.931L31.7172 101.862L30.7518 99.2095L29.6083 99.6257L27.2569 93.1655L28.0595 92.326L27.9908 92.1374L24.6193 93.3646L24.6879 93.5532L25.7716 93.7061L28.1229 100.166L24.8692 101.351L22.5179 94.8904L23.2497 94.0767L23.181 93.888L19.8095 95.1152L19.8781 95.3038L21.0325 95.431L23.3752 101.868L22.5727 102.707L22.6413 102.896L29.7499 100.308ZM34.634 98.6642C35.6714 98.2867 36.2585 97.4055 36.3569 96.5019L36.2968 96.3368L36.2614 96.3497C35.8146 96.8461 35.3506 97.1485 34.9145 97.3072C33.5116 97.8178 32.6786 97.1064 32.2849 96.0615L35.6801 94.8258L35.7058 94.7497C35.119 93.1743 34.0502 92.5486 32.7888 93.0078C31.2917 93.5527 30.5012 95.2689 31.1491 97.049C31.7069 98.5815 33.0544 99.2392 34.634 98.6642ZM32.7462 93.6241C33.3356 93.4095 33.8587 93.673 34.3906 94.6943L32.1272 95.5181C31.89 94.5364 32.1096 93.8558 32.7462 93.6241ZM36.789 92.3261L38.3251 96.5465L37.6961 97.2026L37.7648 97.3912L40.5351 96.3829L40.4665 96.1943L39.6926 96.0488L38.9932 94.1272L41.0562 93.3763L41.7556 95.2979L41.2563 95.9068L41.325 96.0954L44.0953 95.0871L44.0267 94.8985L43.1231 94.8002L41.587 90.5798L42.216 89.9237L42.1473 89.7351L39.377 90.7434L39.4456 90.932L40.2195 91.0775L40.8503 92.8105L38.7872 93.5614L38.1565 91.8284L38.6558 91.2195L38.5871 91.0309L35.8168 92.0392L35.8854 92.2278L36.789 92.3261ZM46.3932 94.3843C47.0651 94.1397 47.5344 93.5951 47.7765 93.013L47.859 92.983C48.1957 93.3945 48.6684 93.5562 49.2578 93.3416C49.8708 93.1185 50.1483 92.6704 50.2254 92.2952L50.1825 92.1774L50.1342 92.1549L49.7452 92.2965C49.4387 92.408 49.2243 92.4059 49.0753 92.3267L47.904 89.1084C47.5307 88.0827 46.4695 88.0284 45.4321 88.406C44.8781 88.6076 44.4752 88.9679 44.0841 89.4707C43.7348 89.9049 43.6085 90.3647 43.7329 90.7066C43.8359 90.9895 43.9442 91.0302 44.1799 90.9444L44.8873 90.687L44.929 90.6183L44.7617 90.1586C44.5901 89.687 44.6757 89.3355 45.2298 89.1338C45.7839 88.9321 46.382 89.1817 46.5922 89.7593L46.8754 90.5374L45.866 91.2119C44.5565 92.089 44.2887 92.7472 44.573 93.5649C44.8616 94.3944 45.6387 94.6589 46.3932 94.3843ZM45.7625 92.7982C45.5608 92.2441 45.6839 91.8121 47.0385 90.9854L47.6692 92.7183C47.3906 92.9799 47.1527 93.1332 46.858 93.2405C46.3393 93.4293 45.9427 93.2933 45.7625 92.7982ZM56.5186 90.6989C58.0865 90.1283 59.0978 88.6521 58.643 87.4025C58.2096 86.2118 57.1184 85.7813 55.5247 86.1344C56.5663 85.4749 57.1191 84.4994 56.7973 83.6152C56.394 82.5071 55.1334 82.1248 53.8249 82.6011C53.0586 82.88 52.6632 83.2242 52.1961 83.8481C51.7857 84.3713 51.653 84.8868 51.8074 85.3112C51.949 85.7003 52.1237 85.7034 52.442 85.5876L53.1022 85.3473L53.1579 85.2069L52.982 84.7235C52.746 84.0752 53.0438 83.4995 53.6568 83.2764C54.3641 83.0189 54.9076 83.3017 55.2509 84.2448C55.6113 85.2351 55.216 86.1666 54.1904 86.5399L53.7189 86.7115L53.9163 87.2538L54.5646 87.0178C55.9675 86.5072 56.6986 86.9754 57.0934 88.06C57.4323 88.9913 57.1657 89.8359 56.2344 90.1749C55.3738 90.4881 54.8014 90.3093 54.5869 89.7199L54.441 89.319L54.2963 89.2516L53.6125 89.5004C53.3178 89.6077 53.1935 89.7063 53.3265 90.0718C53.4681 90.4608 53.8637 90.704 54.4157 90.8635C55.0792 91.0359 55.7995 90.9607 56.5186 90.6989ZM67.4289 86.5944L69.4212 85.8692L69.3526 85.6806L68.4522 85.5544L65.2995 83.7515L66.6664 81.4917L67.3179 80.7873L67.2492 80.5987L64.9622 81.4311L65.0309 81.6197L65.6097 81.8896L65.6355 81.9604L64.2279 84.4753L63.5414 82.5891L64.1349 81.9458L64.0663 81.7572L61.2016 82.7998L61.2703 82.9885L62.1739 83.0868L63.7099 87.3072L63.081 87.9633L63.1496 88.1519L66.0143 87.1093L65.9456 86.9206L65.0774 86.8094L64.3094 84.6993L66.805 86.1273L67.4289 86.5944ZM72.6053 84.8439C74.2321 84.2517 74.8779 82.6149 74.3116 81.0588C73.7452 79.5027 72.1983 78.6639 70.5715 79.256C68.9564 79.8438 68.2988 81.485 68.8652 83.0411C69.4315 84.5972 70.9902 85.4317 72.6053 84.8439ZM72.5451 84.2383C71.543 84.603 70.6767 83.5432 70.2133 82.2701C69.8314 81.2209 69.8375 80.1373 70.6509 79.8412C71.6412 79.4808 72.4957 80.5448 72.9591 81.818C73.3367 82.8554 73.3467 83.9465 72.5451 84.2383ZM75.2404 78.331L76.7765 82.5513L76.1476 83.2075L76.2162 83.3961L78.9866 82.3877L78.9179 82.1991L78.144 82.0536L76.6079 77.8332L78.5531 77.1253L80.0891 81.3456L79.5899 81.9546L79.6585 82.1432L82.4289 81.1349L82.3602 80.9462L81.4566 80.8479L79.9206 76.6275L80.5495 75.9714L80.4809 75.7828L74.2682 78.044L74.3369 78.2326L75.2404 78.331ZM84.4254 80.4749C84.8734 80.3119 85.1015 79.8016 84.9427 79.3654C84.784 78.9293 84.2812 78.685 83.8333 78.8481C83.3971 79.0068 83.1689 79.5171 83.3277 79.9533C83.4864 80.3895 83.9892 80.6337 84.4254 80.4749Z" fill="black"/>
</svg>
